<?xml version="1.0" encoding="UTF-8" standalone="no"?>
<svg
   xmlns:svg="http://www.w3.org/2000/svg"
   xmlns="http://www.w3.org/2000/svg"
   width="400.0"
   height="300.0"

>
    <g transform="scale(101.39924575507602, -101.39924575507602)   translate(0.6972401259108854,-1.3067158341596155)" stroke-width="0.009862006295544267"  fill="none">
       <!-- hidden lines -->
       <g  stroke="rgb(160,160,160)" fill="none" stroke-dasharray="0.009862006295544267,0.009862006295544267" >

       </g>

       <!-- solid lines -->
       <g  stroke="rgb(0,0,0)" fill="none">
			<path d="M0.35355339059327384,-0.8249579113843054 L0.29784965224621657,-0.8089411196686225 L0.23569836841299896,-0.7958221641906709 L0.16844492669610997,-0.7858850307182266 L0.09754516100806387,-0.779344828181525 L0.024533837163709007,-0.7763431322145347 L-0.04900857016478049,-0.7769449204700305 L-0.12149008995163232,-0.7811371660496393 L-0.191341716182545,-0.7888291194968489 L-0.2570513720966108,-0.7998542732486846 L-0.3171966420818228,-0.8139739660216072 L-0.3704755626774797,-0.8308825491075603 L-0.4157348061512726,-0.850214002745463 L-0.45199464656172156,-0.8715498593436829 L-0.4784701678661044,-0.894428262039653 L-0.48785106501926423,-0.906292168222585 L-0.4945882549823905,-0.9183539625061697 L-0.4986452283393451,-0.9305482809821188 L-0.5,-0.9428090415820618 " />
			<path d="M-0.5,-0.9428090415820634 L-0.49759236333609846,-0.9591452316369902 L-0.4903926402016152,-0.975324095251418 L-0.4784701678661044,-0.9911898211244737 L-0.46193976625564337,-1.0065896136429116 L-0.4409606321741775,-1.0213751643863962 L-0.4157348061512726,-1.0354040804186637 L-0.3865052266813685,-1.0485412556093376 L-0.3535533905932738,-1.0606601717798212 L-0.31719664208182274,-1.0716441171425195 L-0.27778511650980114,-1.0813873102991542 L-0.19134171618254492,-1.0967889636672778 L-0.09754516100806418,-1.1062732549826018 L-4.2219737261399057e-17,-1.10947570824873 L0.09754516100806408,-1.1062732549826018 L0.19134171618254486,-1.0967889636672778 L0.277785116509801,-1.0813873102991542 L0.3171966420818227,-1.0716441171425195 L0.35355339059327373,-1.0606601717798212 L0.3865052266813685,-1.0485412556093376 L0.4157348061512727,-1.0354040804186637 L0.44096063217417747,-1.0213751643863964 L0.46193976625564337,-1.0065896136429116 L0.4784701678661044,-0.9911898211244737 L0.4903926402016152,-0.9753240952514182 L0.4975923633360984,-0.9591452316369902 L0.5,-0.9428090415820641 " />
			<path d="M0.5,-0.9428090415820634 L0.49759236333609846,-0.9264728515271365 L0.4903926402016152,-0.9102939879127087 L0.47847016786610447,-0.894428262039653 L0.4619397662556434,-0.879028469521215 L0.4409606321741775,-0.8642429187777304 L0.41573480615127273,-0.850214002745463 L0.38650522668136855,-0.8370768275547892 L0.3535533905932754,-0.824957911384306 " />
			<path d="M0.35355339059327384,1.0606601717798212 L0.29784965224621657,1.0766769634955042 L0.23569836841299896,1.0897959189734558 L0.16844492669610997,1.0997330524459001 L0.0975451610080639,1.1062732549826018 L0.02453383716370903,1.109274950949592 L-0.049008570164780475,1.1086731626940962 L-0.1214900899516323,1.1044809171144874 L-0.191341716182545,1.0967889636672778 L-0.2570513720966108,1.085763809915442 L-0.3171966420818228,1.0716441171425195 L-0.3704755626774797,1.0547355340565663 L-0.4157348061512726,1.0354040804186637 L-0.45199464656172156,1.0140682238204437 L-0.4784701678661044,0.9911898211244737 L-0.48785106501926423,0.9793259149415418 L-0.4945882549823905,0.967264120657957 L-0.4986452283393451,0.9550698021820079 L-0.5,0.9428090415820649 " />
			<path d="M0.5,0.9428090415820634 L0.49759236333609846,0.9591452316369902 L0.4903926402016152,0.975324095251418 L0.47847016786610447,0.9911898211244737 L0.4619397662556434,1.0065896136429116 L0.4409606321741775,1.0213751643863962 L0.41573480615127273,1.0354040804186637 L0.38650522668136855,1.0485412556093376 L0.3535533905932754,1.0606601717798207 " />
			<path d="M-0.5,0.9428090415820634 L-0.5,-0.9428090415820634 " />
			<path d="M0.5,0.9428090415820634 L0.5,-0.9428090415820634 " />

       </g>
    </g>
    
</svg>
