<?xml version="1.0" encoding="UTF-8" standalone="no"?>
<svg
   xmlns:svg="http://www.w3.org/2000/svg"
   xmlns="http://www.w3.org/2000/svg"
   width="400.0"
   height="300.0"

>
    <g transform="scale(112.5, -112.5)   translate(1.1777777777777778,-1.1777777777777778)" stroke-width="0.008888888888888889"  fill="none">
       <!-- hidden lines -->
       <g  stroke="rgb(160,160,160)" fill="none" stroke-dasharray="0.008888888888888889,0.008888888888888889" >

       </g>

       <!-- solid lines -->
       <g  stroke="rgb(0,0,0)" fill="none">
			<path d="M0.31622776601683816,0.9486832980505138 L0.2311455813921155,0.972919174547866 L0.1442543691942376,0.9895406393718111 L0.05623417097011237,0.9984176070238867 L-0.03222613588696089,0.9994806031963779 L-0.12043422953690874,0.9927213085029711 L-0.20769976204996693,0.9781926235892332 L-0.29333976231523884,0.9560082551133329 L-0.3766839812156449,0.9263418258372725 L-0.4570801372360211,0.8894255157933688 L-0.5338990214503709,0.8455482451606984 L-0.6065394219348245,0.795053413072964 L-0.6744328290660959,0.7383362100546759 L-0.7370478848800994,0.675840525119478 L-0.7938945416684601,0.6080554717367698 L-0.8445278972662634,0.5355115598556429 L-0.8885516770147155,0.4587765439452381 L-0.9256213351476381,0.3784509795462341 L-0.955446751329241,0.29516352310947835 L-0.9777945012391095,0.20956601190689572 L-0.9924896834339997,0.12232836252104123 L-0.999417288188772,0.034133327839535786 L-0.9985230976034268,-0.05432884641199033 L-0.9898141099316827,-0.1423658237785702 L-0.9733584848101531,-0.22928859554736494 L-0.949285009816775,-0.3144168731750339 L-0.9177820925333955,-0.3970844124679562 L-0.8790962860009908,-0.47664422784637217 L-0.8335303591078319,-0.5524736558837615 L-0.781440927012425,-0.6239792284923931 L-0.7232356601463787,-0.6906013176157659 L-0.6593700936405376,-0.7518185150769227 L-0.590344062144945,-0.807151713304386 L-0.5166977879450062,-0.8561678549985029 L-0.4390076529896453,-0.8984833223919759 L-0.3578816879210654,-0.9337669395790199 L-0.27395481341057737,-0.9617425644158503 L-0.18788387104348753,-0.9821912497073644 L-0.10034248264311503,-0.9949529567658042 L-0.012015778266694064,-0.9999278079304754 L0.07640496586625804,-0.997076868245862 L0.16422773754762532,-0.986422450180443 L0.2507652045144863,-0.968047939001374 L0.33534009375599133,-0.9420971401717144 L0.41729049209295255,-0.9087731538776999 L0.49597502654592673,-0.8683367854944114 L0.5707778839483846,-0.8211045044301026 L0.6411136305196894,-0.7674459673239956 L0.706431793678191,-0.7077811249818787 L0.7662211702355354,-0.6425769356916624 L0.8200138272547285,-0.5723437106416496 L0.8673887642598153,-0.4976311200435827 L0.9079752081354174,-0.4190238912179658 L0.9414555149290738,-0.33713723230997916 L0.9675676558458461,-0.2526120174516134 L0.986107267978912,-0.16610977105265698 L0.9969292537263951,-0.07830749047526206 L0.9999489163768303,0.010107652388321252 L0.9951426229757682,0.09844368916750444 L0.9825479892856857,0.18600927060406508 L0.962263585391643,0.2721190772974588 L0.9344481642567224,0.35609918325831896 L0.8993194192648463,0.4372923302930659 L0.857152280474889,0.5150630719404153 L0.8082767629202016,0.5888027467015081 L0.7530753837935256,0.6579342416413926 L0.691980168731323,0.721916509080219 L0.6254692706274098,0.7802488010249142 L0.5540632274382575,0.8324745882011666 L0.47832088826771274,0.8781851330139827 L0.3988350396150441,0.9170226884735548 L0.3162277660168552,0.9486832980505081 " />

       </g>
    </g>
    
</svg>
