<?xml version="1.0" encoding="UTF-8" standalone="no"?>
<svg
   xmlns:svg="http://www.w3.org/2000/svg"
   xmlns="http://www.w3.org/2000/svg"
   width="400.0"
   height="300.0"

>
    <g transform="scale(54.52118460612316, -54.52118460612316)   translate(0.8668298872169744,-1.5980420291433377)" stroke-width="0.018341494360848722"  fill="none">
       <!-- hidden lines -->
       <g  stroke="rgb(160,160,160)" fill="none" stroke-dasharray="0.018341494360848722,0.018341494360848722" >

       </g>

       <!-- solid lines -->
       <g  stroke="rgb(0,0,0)" fill="none">
			<path d="M4.892640687119285,0.22140452079103193 L4.873516643953042,0.22663005801495997 L4.853389965463564,0.22990032289396403 L4.810751961047185,0.23048999335201012 L4.766030763426915,0.22315549700858153 L4.720594176926178,0.20812116049942375 L4.675831886141189,0.18584681118988636 L4.6331129522357815,0.15701371328817987 L4.593743940006899,0.12250373128063735 L4.558928956410546,0.08337235797834018 L4.529732822775691,0.04081643211621637 L4.507048507089282,-0.0038624671334659237 L4.491569812440701,-0.04929782914909142 L4.4837701569535175,-0.09410000678549843 L4.483888094223439,-0.13689871893371197 L4.486924540229991,-0.15713420479606466 L4.491920017121938,-0.17638496076764718 L4.498836254756241,-0.19450350759861854 L4.507620268120804,-0.21135103984680348 L4.51820476325047,-0.2267984892604768 L4.530508652763319,-0.24072751356493097 " />
			<path d="M4.530508652763321,-0.2407275135649324 L4.546232697539762,-0.25440861088735955 L4.563848258623382,-0.2659150043097095 L4.583185688531302,-0.27513588097329034 L4.6040587572425915,-0.28198243879518803 L4.626266445695184,-0.2863887416808685 L4.649594881709321,-0.2883123545248122 L4.673819399693568,-0.2877347518837785 L4.698706704297267,-0.28466149638695015 L4.7240171171723,-0.27912218516477405 L4.749506885206602,-0.2711701648124151 L4.774930527999876,-0.26088201763288327 L4.800043201974049,-0.24835682410759058 L4.824603058350762,-0.23371520869715293 L4.848373572287328,-0.21709817816189403 L4.871125820740251,-0.1986657635896613 L4.892640687119285,-0.178595479208968 L4.912710971499978,-0.1570806128299338 L4.931143386072211,-0.1343283643770111 L4.94776041660747,-0.11055785044044575 L4.962402032017907,-0.08599799406373147 L4.9749272255432,-0.060885320089559235 L4.985215372722732,-0.03546167729628437 L4.99316739307509,-0.009971909261983092 L4.998706704297267,0.015338503613049913 L5.001779959794095,0.04022580821674883 L5.002357562435129,0.06445032620099543 L5.000433949591185,0.08777876221513303 L4.996027646705505,0.109986450667725 L4.9891810888836075,0.1308595193790156 L4.979960212220026,0.15019694928693492 L4.968453818797676,0.16781251037055525 L4.9547727214752495,0.18353655514699557 " />
			<path d="M4.954772721475249,0.18353655514699624 L4.941279031307899,0.19549998216901038 L4.926352417828023,0.20584684511749915 L4.910100557589812,0.21450250452045644 L4.892640687119286,0.22140452079103165 " />
			<path d="M3.8926406871192842,1.2214045207910316 L3.873516643953042,1.2266300580149596 L3.8533899654635637,1.2299003228939638 L3.8107519610471843,1.2304899933520097 L3.7660307634269152,1.2231554970085812 L3.720594176926178,1.2081211604994233 L3.675831886141189,1.185846811189886 L3.6331129522357815,1.1570137132881795 L3.593743940006898,1.122503731280637 L3.5589289564105457,1.0833723579783399 L3.529732822775691,1.040816432116216 L3.507048507089282,0.9961375328665337 L3.4915698124407,0.9507021708509082 L3.4837701569535175,0.9058999932145012 L3.4838880942234387,0.8631012810662877 L3.4869245402299907,0.842865795203935 L3.491920017121937,0.8236150392323525 L3.498836254756241,0.8054964924013811 L3.507620268120804,0.7886489601531962 L3.5182047632504694,0.7732015107395228 L3.5305086527633187,0.7592724864350686 " />
			<path d="M3.9547727214752486,1.1835365551469959 L3.9412790313078987,1.19549998216901 L3.9263524178280225,1.2058468451174988 L3.9101005575898107,1.214502504520456 L3.892640687119285,1.2214045207910313 " />
			<path d="M0.15811388300841908,0.4743416490252569 L0.09741633512801014,0.49041824767256287 L0.035182473448934604,0.4987606575924118 L-0.027606236853421496,0.49923731399685345 L-0.0899595803094326,0.491840699729649 L-0.15089420744471552,0.4766874638163156 L-0.20944914278876497,0.45401658183931076 L-0.2647009400321824,0.4241855871503403 L-0.3157782453266154,0.38766493235582183 L-0.36187553905546743,0.34503056999824655 L-0.402265839359446,0.2969548694405269 L-0.4363121670747616,0.24419601319948972 L-0.4634775912750532,0.18758603995466908 L-0.4833336969928446,0.12801772280129475 L-0.49556734157950333,0.06643048968526324 L-0.49998559315187296,0.003795608063244129 L-0.4965187732433216,-0.0588991325653187 L-0.485221555674785,-0.12066499868869014 L-0.4662721043159494,-0.18052790570096464 L-0.43996926333459774,-0.23754377979819097 L-0.40672784424556113,-0.29081344658622404 L-0.36707208408533504,-0.3394968115980601 L-0.3216273778808491,-0.38282610908542997 L-0.27111041579629963,-0.4201180101432901 L-0.21631788050113027,-0.4507843992148561 L-0.15811388300841997,-0.4743416490252566 L-0.09741633512801151,-0.49041824767256265 L-0.03518247344893647,-0.49876065759241167 L0.02760623685341922,-0.49923731399685356 L0.08995958030942991,-0.4918406997296495 L0.1508942074447125,-0.47668746381631655 L0.2094491427887617,-0.45401658183931226 L0.26470094003217903,-0.4241855871503425 L0.3157782453266119,-0.3876649323558247 L0.36187553905546405,-0.3450305699982501 L0.4022658393594428,-0.2969548694405313 L0.4363121670747587,-0.24419601319949477 L0.4634775912750509,-0.1875860399546749 L0.48333369699284284,-0.12801772280130128 L0.4955673415795024,-0.06643048968527035 L0.49998559315187296,-0.0037956080632517244 L0.49651877324332255,0.05889913256531072 L0.48522155567478703,0.1206649986886819 L0.4662721043159527,0.1805279057009563 L0.43996926333460196,0.2375437797981831 L0.4067278442455663,0.2908134465862168 L0.3670720840853411,0.33949681159805356 L0.32162737788085594,0.38282610908542425 L0.2711104157963071,0.42011801014328526 L0.21631788050113834,0.45078439921485225 L0.15811388300842844,0.4743416490252538 " />
			<path d="M2.279434226568062,1.1814484302118042 L2.218736678687653,1.1975250288591104 L2.1565028170085774,1.2058674387789592 L2.0937141067062215,1.2063440951834008 L2.0313607632502104,1.1989474809161966 L1.9704261361149273,1.1837942450028631 L1.9118712007708778,1.1611233630258584 L1.8566194035274604,1.131292368336888 L1.8055420982330272,1.0947717135423696 L1.7594448045041753,1.0521373511847942 L1.7190545042001966,1.0040616506270748 L1.685008176484881,0.9513027943860375 L1.6578427522845893,0.894692821141217 L1.637986646566798,0.8351245039878427 L1.6257530019801392,0.7735372708718111 L1.6213347504077693,0.710902389249792 L1.6248015703163208,0.6482076486212291 L1.6360987878848574,0.5864417824978577 L1.6550482392436927,0.5265788754855832 L1.6813510802250446,0.4695630013883565 L1.7145924993140813,0.4162933346003234 L1.7542482594743074,0.36760996958848735 L1.7996929656787932,0.3242806721011175 L1.8502099277633428,0.2869887710432574 L1.905002463058512,0.2563223819716914 L1.9632064605512225,0.23276513216129086 L2.023904008431631,0.21668853351398482 L2.086137870110706,0.2083461235941358 L2.1489265804130615,0.2078694671896939 L2.211279923869072,0.21526608145689796 L2.272214551004355,0.2304193173702309 L2.3307694863484043,0.2530901993472352 L2.3860212835918215,0.28292119403620497 L2.437098588886254,0.31944184883072274 L2.4831958826151066,0.36207621118829736 L2.523586182919085,0.4101519117460162 L2.5576325106344013,0.46291076798705266 L2.5847979348346932,0.5195207412318725 L2.6046540405524854,0.5790890583852462 L2.6168876851391447,0.6406762915012771 L2.6213059367115155,0.7033111731232957 L2.617839116802965,0.7660059137518582 L2.6065418992344296,0.8277717798752293 L2.587592447875595,0.8876346868875038 L2.5612896068942446,0.9446505609847305 L2.528048187805209,0.9979202277727642 L2.4883924276449836,1.0466035927846011 L2.442947721440498,1.0899328902719718 L2.3924307593559497,1.1272247913298328 L2.3376382240607807,1.1578911804013998 L2.2794342265680707,1.1814484302118013 " />
			<path d="M3.53050865276332,0.7592724864350673 L4.53050865276332,-0.2407275135649327 " />
			<path d="M3.954772721475249,1.1835365551469959 L4.954772721475249,0.18353655514699588 " />

       </g>
    </g>
    
</svg>
