<?xml version="1.0" encoding="UTF-8" standalone="no"?>
<svg
   xmlns:svg="http://www.w3.org/2000/svg"
   xmlns="http://www.w3.org/2000/svg"
   width="400.0"
   height="300.0"

>
    <g transform="scale(25.799842016265927, -25.799842016265927)   translate(3.6036256700469975,-1.953709847278387)" stroke-width="0.03875992726504038"  fill="none">
       <!-- hidden lines -->
       <g  stroke="rgb(160,160,160)" fill="none" stroke-dasharray="0.03875992726504038,0.03875992726504038" >

       </g>

       <!-- solid lines -->
       <g  stroke="rgb(0,0,0)" fill="none">
			<path d="M-2.82842712474619,0.9428090415820634 L-2.82842712474619,-6.599663291074443 " />
			<path d="M-7.824784956407534e-17,-7.542472332656507 L-2.82842712474619,-6.599663291074443 " />
			<path d="M-2.1213203435596424,1.1785113019775793 L-2.1213203435596424,-6.363961030678928 " />
			<path d="M-2.82842712474619,0.9428090415820634 L-2.1213203435596424,1.1785113019775793 " />
			<path d="M-2.82842712474619,-6.599663291074443 L-2.1213203435596424,-6.363961030678928 " />
			<path d="M0.0,0.4714045207910317 L-7.824784956407534e-17,-7.0710678118654755 " />
			<path d="M-2.1213203435596424,1.1785113019775793 L4.745990888828855e-17,0.4714045207910317 " />
			<path d="M-2.1213203435596424,-6.363961030678928 L4.745990888828855e-17,-7.0710678118654755 " />
			<path d="M1.414213562373095,0.9428090415820634 L1.414213562373095,-6.599663291074443 " />
			<path d="M0.0,0.4714045207910317 L1.414213562373095,0.9428090415820634 " />
			<path d="M-7.824784956407534e-17,-7.0710678118654755 L1.414213562373095,-6.599663291074444 " />
			<path d="M2.1213203435596424,0.7071067811865475 L2.1213203435596424,-6.835365551469959 " />
			<path d="M1.414213562373095,0.9428090415820634 L2.1213203435596424,0.7071067811865475 " />
			<path d="M1.414213562373095,-6.599663291074443 L2.1213203435596424,-6.835365551469959 " />
			<path d="M2.1213203435596424,-6.835365551469959 L-4.745990888828855e-17,-7.542472332656507 " />

       </g>
    </g>
    
</svg>
