<?xml version="1.0" encoding="UTF-8" standalone="no"?>
<svg
   xmlns:svg="http://www.w3.org/2000/svg"
   xmlns="http://www.w3.org/2000/svg"
   width="400.0"
   height="300.0"

>
    <g transform="scale(57.332982258368716, -57.332982258368716)   translate(2.9651344357755893,-2.1637467504308354)" stroke-width="0.017441967269268173"  fill="none">
       <!-- hidden lines -->
       <g  stroke="rgb(160,160,160)" fill="none" stroke-dasharray="0.017441967269268173,0.017441967269268173" >

       </g>

       <!-- solid lines -->
       <g  stroke="rgb(0,0,0)" fill="none">
			<path d="M-0.21213203435596412,-1.814907405045472 L-2.616295090390226,-1.013519719700718 " />
			<path d="M-0.21213203435596423,-1.814907405045472 L0.21213203435596423,-1.814907405045472 " />
			<path d="M-2.6162950903902256,-1.0135197197007182 L-2.6162950903902256,-0.8720983634634086 " />
			<path d="M0.21213203435596426,-1.8149074050454719 L2.616295090390226,-1.013519719700718 " />
			<path d="M-2.6162950903902256,-0.8720983634634086 L-0.21213203435596398,-0.07071067811865463 " />
			<path d="M2.616295090390226,-0.8720983634634086 L2.616295090390226,-1.0135197197007182 " />
			<path d="M0.21213203435596423,-0.07071067811865493 L-0.21213203435596406,-0.07071067811865493 " />
			<path d="M2.6162950903902256,-0.8720983634634086 L0.21213203435596398,-0.07071067811865463 " />
			<path d="M-2.6162950903902256,1.0135197197007182 L-2.6162950903902256,-0.8720983634634085 " />
			<path d="M-2.6162950903902256,1.0135197197007182 L-0.21213203435596398,1.814907405045472 " />
			<path d="M0.21213203435596423,1.814907405045472 L-0.21213203435596406,1.814907405045472 " />
			<path d="M2.6162950903902256,1.013519719700718 L0.21213203435596398,1.814907405045472 " />
			<path d="M-0.21213203435596428,1.814907405045472 L-0.2121320343559643,-0.07071067811865461 " />
			<path d="M2.6162950903902256,1.0135197197007182 L2.6162950903902256,-0.8720983634634085 " />
			<path d="M0.21213203435596428,1.8149074050454719 L0.21213203435596426,-0.07071067811865483 " />

       </g>
    </g>
    
</svg>
