<?xml version="1.0" encoding="UTF-8" standalone="no"?>
<svg
   xmlns:svg="http://www.w3.org/2000/svg"
   xmlns="http://www.w3.org/2000/svg"
   width="400.0"
   height="300.0"

>
    <g transform="scale(53.033006713991135, -53.033006713991135)   translate(3.2055508547123486,-2.1186934133031627)" stroke-width="0.018856181498307933"  fill="none">
       <!-- hidden lines -->
       <g  stroke="rgb(160,160,160)" fill="none" stroke-dasharray="0.018856181498307933,0.018856181498307933" >

       </g>

       <!-- solid lines -->
       <g  stroke="rgb(0,0,0)" fill="none">
			<path d="M-2.82842712474619,0.5656854249492381 L-2.82842712474619,-0.565685424949238 " />
			<path d="M2.82842712474619,0.5656854249492381 L2.82842712474619,-0.565685424949238 " />
			<path d="M-2.82842712474619,0.5656854249492381 L-2.8266591572865996,0.5954780499755901 L-2.821366305957758,0.6250844499755959 L-2.8125816548325635,0.6543195639613387 L-2.800360114207969,0.6830006517456949 L-2.7847780773767035,0.7109484361980474 L-2.765932943115037,0.737988223853441 L-2.7439425068713823,0.7639509968705792 L-2.7189442244612376,0.7886744695131479 L-2.691094352870898,0.8120041025507114 L-2.6605669735405204,0.8337940692384554 L-2.627552904231717,0.8539081668377186 L-2.5922585062812753,0.8722206679796625 L-2.554904394696511,0.8886171065504552 L-2.515724059155085,0.9029949931856265 " />
			<path d="M-7.659230492907455e-17,-1.6970562748477138 L-2.2724614611377157e-17,-1.70309306844399 L5.291928628392881e-17,-1.7087096578581338 L5.923606708082267e-17,-1.7138998834914545 L3.2648869088663094e-17,-1.7186580533296962 L7.275699728248685e-17,-1.7229789491853533 L7.185226210925639e-17,-1.72685783242035 L5.598508690761942e-17,-1.7302904491428073 L2.2085623716477853e-18,-1.7332730348721996 L9.313217358737873e-17,-1.735802318667784 L6.362520207029578e-17,-1.7378755267157726 L-5.850334063940013e-17,-1.7394903853713188 L-6.619723671615684e-17,-1.7406451236519764 L-1.1923202974184652e-16,-1.7413384751799 L-3.419879218840425e-17,-1.741569679570655 " />
			<path d="M-7.317173027922914e-17,-1.7415696795706728 L7.983135604156028e-17,-1.7413384789346973 L5.683015562141291e-17,-1.740645130580094 L-6.898482460020953e-17,-1.7394903948887668 L2.91778982793753e-17,-1.7378755382373035 L8.182128353995634e-18,-1.7358023316081646 L-7.141759096609716e-17,-1.7332730486474817 L-8.66087029114312e-17,-1.7302904631715914 L-8.557386802701553e-17,-1.7268578461250457 L5.521984227506032e-17,-1.7229789619934281 L-3.181275934948574e-17,-1.718658064674915 L9.687033215353474e-17,-1.7138998928151064 L-2.8095224653553275e-17,-1.7087096646102435 L-3.0221645159115513e-17,-1.7030930720845139 L1.6233162427139646e-17,-1.6970562748477156 " />
			<path d="M-2.82842712474619,-0.5656854249492381 L-2.8266591572865996,-0.5954780499755908 L-2.821366305957758,-0.6250844499755975 L-2.812581654832562,-0.6543195639613413 L-2.800360114207967,-0.6830006517456982 L-2.784778077376701,-0.7109484361980513 L-2.7659329431150335,-0.7379882238534456 L-2.7439425068713774,-0.7639509968705844 L-2.7189442244612314,-0.7886744695131535 L-2.6910943528708904,-0.8120041025507172 L-2.6605669735405115,-0.8337940692384616 L-2.6275529042317065,-0.8539081668377246 L-2.592258506281263,-0.8722206679796686 L-2.554904394696497,-0.8886171065504609 L-2.515724059155069,-0.9029949931856319 " />
			<path d="M-2.515724059155068,-0.9029949931856324 L-2.4988320221724822,-0.9083944752986356 L-2.4816810691170375,-0.9134181144691709 L-2.4642900091350217,-0.9180604013611823 L-2.446677914693735,-0.9223162448608999 L-2.4288641006650535,-0.9261809776601745 L-2.410868103143148,-0.9296503613750307 L-2.3927096580195983,-0.9327205911938283 L-2.3744086793393917,-0.935388300049932 L-2.3559852374615398,-0.9376505623143128 L-2.3374595370482734,-0.9395048970040345 L-2.318851894906947,-0.9409492705031027 L-2.3001827177089567,-0.9419820987926966 L-2.2814724796101036,-0.9426022491883334 L-2.2627416997969534,-0.9428090415820634 " />
			<path d="M5.868588717305651e-18,1.5084944665313014 L-5.868588717305651e-18,0.37712361663282534 " />
			<path d="M2.82842712474619,0.5656854249492381 L2.8266591572865996,0.5954780499755901 L2.821366305957758,0.6250844499755959 L2.8125816548325635,0.6543195639613388 L2.800360114207969,0.6830006517456951 L2.7847780773767035,0.7109484361980475 L2.765932943115037,0.7379882238534412 L2.743942506871382,0.7639509968705794 L2.718944224461237,0.7886744695131481 L2.6910943528708975,0.8120041025507118 L2.66056697354052,0.8337940692384559 L2.627552904231717,0.8539081668377188 L2.592258506281275,0.8722206679796627 L2.554904394696511,0.8886171065504551 L2.515724059155089,0.9029949931856251 " />
			<path d="M2.82842712474619,-0.5656854249492381 L2.826659156362067,-0.5954780577532022 L2.821366302271187,-0.6250844653848208 L2.812581646581012,-0.6543195867116995 L2.8003600996457454,-0.6830006814052658 L2.7847780548375107,-0.7109484721979646 L2.765932911033372,-0.7379882654938563 L2.74394246380299,-0.7639510433280016 L2.718944169102418,-0.7886745198491114 L2.691094284076486,-0.8120041557216929 L2.6605668903403683,-0.8337941241069527 L2.6275528058455073,-0.8539082221843938 L2.592258392131527,-0.8722207225164413 L2.554904264419646,-0.8886171589344674 L2.5157239126104307,-0.9029950420338624 " />
			<path d="M2.5157239126104263,-0.902995042033864 L2.4988318839170613,-0.9083945176290099 L2.4816809396259116,-0.9134181507047894 L2.4642898888501574,-0.9180604319387132 L2.446677804023176,-0.9223162702295766 L2.4288639999821684,-0.9261809982807735 L2.410868012785948,-0.9296503777188304 L2.3927095782901158,-0.9327206037415509 L2.3744086105031252,-0.9353883092906687 L2.355985179746969,-0.9376505687444364 L2.3374594906464394,-0.9395049011260999 L2.318851859971105,-0.9409492728247361 L2.3001826943542927,-0.9419820998254775 L2.281472467913526,-0.9426022494466703 L2.262741699796957,-0.9428090415820634 " />
			<path d="M5.868588717305651e-18,1.5084944665313014 L-9.671318987255258e-17,1.537697769071124 L-8.097033154012588e-17,1.56553988529485 L9.767396065853367e-17,1.591846782238862 L4.1891250997929566e-17,1.616454023148354 L7.895685733724989e-17,1.6392077953236182 L1.0388148345591309e-17,1.6599658715584569 L-7.62145346424661e-17,1.6785984991610434 L-7.073103244133106e-17,1.6949892110002307 L4.838224132918068e-17,1.7090355535076809 L-9.486854782308084e-17,1.7206497270852987 L9.250562350420779e-17,1.7297591349149604 L3.932064985481317e-17,1.7363068367400896 L4.9647820778022284e-17,1.7402519047826266 L-7.164085660946375e-17,1.741569679570655 " />
			<path d="M-5.868588717305651e-18,0.37712361663282523 L-9.842448612343226e-17,0.3337135313975021 L-7.257763050922017e-17,0.2884780790254427 L-3.731368952524875e-17,0.24198612157644667 L-7.806542975085665e-17,0.1948223223906971 L-9.188185814705238e-17,0.14757979360802856 L-1.5501768565350417e-17,0.10085263743863682 L6.850479319736114e-17,0.05522847498307934 L-3.0752100199906855e-17,0.011281056555990375 L7.493480294512402e-17,-0.03043695355702306 L-5.2010470439141186e-17,-0.06940092717343657 L-3.2422809913099635e-17,-0.10512086971759985 L2.598467652579467e-17,-0.1371475821868266 L-5.1730957875546495e-17,-0.16507831008948476 L-3.579512481817126e-17,-0.1885618083164122 " />
			<path d="M-4.248332779313381e-17,-1.697056274847714 L-2.262741699796952,-0.9428090415820632 " />
			<path d="M-2.82842712474619,0.5656854249492381 L6.327987851771807e-17,1.5084944665313016 " />
			<path d="M-2.82842712474619,-0.5656854249492381 L6.327987851771807e-17,0.3771236166328253 " />
			<path d="M2.82842712474619,0.5656854249492381 L-6.327987851771807e-17,1.5084944665313016 " />
			<path d="M2.82842712474619,-0.5656854249492381 L-6.327987851771807e-17,0.3771236166328253 " />
			<path d="M4.248332779313381e-17,-1.697056274847714 L2.262741699796952,-0.9428090415820632 " />
			<path d="M-2.262741699796952,-0.9428090415820632 L-3.186595130406626e-17,-0.1885618083164125 " />
			<path d="M2.262741699796952,-0.9428090415820632 L3.186595130406626e-17,-0.1885618083164125 " />
			<path d="M3.112990149862955e-07,-1.7415697833370112 L-2.5157242239094173,-0.9029949382675336 " />
			<path d="M-1.546345343823005e-08,-1.7415696847251572 L2.5157239280739656,-0.9029950368793508 " />
			<path d="M-2.515724223909436,0.9029949382675273 L1.546342572204011e-08,1.7415696847251478 " />
			<path d="M2.5157242239094373,0.9029949382675269 L-3.112989948798371e-07,1.7415697833370043 " />

       </g>
    </g>
    
</svg>
