<?xml version="1.0" encoding="UTF-8" standalone="no"?>
<svg
   xmlns:svg="http://www.w3.org/2000/svg"
   xmlns="http://www.w3.org/2000/svg"
   width="400.0"
   height="300.0"

>
    <g transform="scale(35.35533905932738, -35.35533905932738)   translate(4.808326112068523,-2.451303508113365)" stroke-width="0.0282842712474619"  fill="none">
       <!-- hidden lines -->
       <g  stroke="rgb(160,160,160)" fill="none" stroke-dasharray="0.0282842712474619,0.0282842712474619" >

       </g>

       <!-- solid lines -->
       <g  stroke="rgb(0,0,0)" fill="none">
			<path d="M-4.8904905977547084e-18,-1.8856180831641267 L-4.242640687119285,-0.47140452079103157 " />
			<path d="M-4.242640687119285,0.4714045207910316 L-4.242640687119285,-0.47140452079103173 " />
			<path d="M4.242640687119285,0.47140452079103173 L4.242640687119285,-0.4714045207910316 " />
			<path d="M-4.8904905977547084e-18,-1.8856180831641267 L4.242640687119285,-0.47140452079103157 " />
			<path d="M-4.242640687119285,-0.47140452079103173 L9.49198177765771e-17,0.9428090415820634 " />
			<path d="M4.242640687119285,-0.4714045207910316 L-9.49198177765771e-17,0.9428090415820635 " />
			<path d="M-0.35355339059327373,-1.5320646925708528 L-0.3865052266813685,-1.5199457764003692 L-0.4157348061512727,-1.5068086012096953 L-0.44096063217417747,-1.492779685177428 L-0.46193976625564337,-1.4779941344339433 L-0.4784701678661044,-1.4625943419155054 L-0.4903926402016152,-1.4467286160424497 L-0.4975923633360984,-1.4305497524280217 L-0.5,-1.4142135623730956 " />
			<path d="M-0.5,-1.414213562373095 L-0.49759236333609846,-1.397877372318168 L-0.4903926402016152,-1.3816985087037401 L-0.47847016786610447,-1.3658327828306847 L-0.4619397662556434,-1.3504329903122467 L-0.4409606321741775,-1.335647439568762 L-0.41573480615127273,-1.3216185235364946 L-0.38650522668136855,-1.3084813483458206 L-0.35355339059327384,-1.296362432175337 L-0.3171966420818226,-1.2853784868126388 L-0.2777851165098011,-1.275635293656004 L-0.19134171618254517,-1.2602336402878804 L-0.09754516100806433,-1.2507493489725565 L-9.491641444660038e-17,-1.2475468957064282 L0.09754516100806415,-1.2507493489725565 L0.191341716182545,-1.2602336402878804 L0.2777851165098009,-1.275635293656004 L0.31719664208182247,-1.2853784868126388 L0.3535533905932737,-1.296362432175337 L0.3865052266813686,-1.3084813483458206 L0.4157348061512726,-1.3216185235364946 L0.4409606321741774,-1.3356474395687619 L0.46193976625564326,-1.3504329903122465 L0.4784701678661043,-1.3658327828306844 L0.49039264020161516,-1.3816985087037401 L0.49759236333609846,-1.397877372318168 L0.5,-1.4142135623730934 " />
			<path d="M0.5,-1.414213562373095 L0.4986452283393451,-1.4264743229730394 L0.4945882549823905,-1.4386686414489886 L0.4878510650192643,-1.4507304357325732 L0.47847016786610447,-1.4625943419155054 L0.4519946465617217,-1.4854727446114753 L0.4157348061512727,-1.5068086012096953 L0.37047556267747966,-1.5261400548475978 L0.3171966420818229,-1.543048637933551 L0.25705137209661105,-1.5571683307064736 L0.1913417161825451,-1.5681934844583094 L0.12149008995163221,-1.575885437905519 L0.0490085701647806,-1.5800776834851278 L-0.024533837163708678,-1.5806794717406236 L-0.09754516100806378,-1.5776777757736333 L-0.16844492669610964,-1.5711375732369317 L-0.23569836841299846,-1.5612004397644874 L-0.2978496522462163,-1.5480814842865358 L-0.35355339059327184,-1.5320646925708534 " />
			<path d="M2.474873734152916,-0.5892556509887896 L2.4419218980648214,-0.577136734818306 L2.4126923185949174,-0.563999559627632 L2.3874664925720124,-0.5499706435953646 L2.3664873584905464,-0.53518509285188 L2.3499569568800855,-0.5197853003334421 L2.3380344845445746,-0.5039195744603865 L2.3308347614100913,-0.4877407108459585 L2.32842712474619,-0.47140452079103246 " />
			<path d="M2.32842712474619,-0.4714045207910317 L2.3308347614100913,-0.4550683307361049 L2.3380344845445746,-0.4388894671216769 L2.3499569568800855,-0.4230237412486213 L2.3664873584905464,-0.40762394873018337 L2.3874664925720124,-0.39283839798669873 L2.412692318594917,-0.37880948195443137 L2.4419218980648214,-0.3656723067637575 L2.474873734152916,-0.3535533905932738 L2.5112304826643674,-0.3425694452305755 L2.5506420082363888,-0.3328262520739408 L2.6370854085636446,-0.3174245987058173 L2.7308819637381254,-0.3079403073904933 L2.82842712474619,-0.30473785412436505 L2.925972285754254,-0.3079403073904933 L3.0197688409287347,-0.31742459870581724 L3.106212241255991,-0.3328262520739408 L3.1456237668280123,-0.3425694452305754 L3.1819805153394634,-0.35355339059327373 L3.2149323514275583,-0.3656723067637575 L3.2441619308974623,-0.3788094819544313 L3.2693877569203673,-0.3928383979866987 L3.290366891001833,-0.40762394873018326 L3.306897292612294,-0.42302374124862113 L3.318819764947805,-0.4388894671216769 L3.3260194880822884,-0.4550683307361049 L3.32842712474619,-0.4714045207910302 " />
			<path d="M3.32842712474619,-0.4714045207910317 L3.327072353085535,-0.48366528139097625 L3.3230153797285804,-0.4958595998669253 L3.316278189765454,-0.50792139415051 L3.306897292612294,-0.5197853003334421 L3.2804217713079113,-0.542663703029412 L3.2441619308974623,-0.563999559627632 L3.1989026874236695,-0.5833310132655347 L3.1456237668280127,-0.6002395963514878 L3.085478496842801,-0.6143592891244103 L3.019768840928735,-0.6253844428762461 L2.949917214697822,-0.6330763963234556 L2.8774356949109703,-0.6372686419030644 L2.8038932875824814,-0.6378704301585604 L2.730881963738126,-0.6348687341915701 L2.65998219805008,-0.6283285316548686 L2.5927287563331913,-0.6183913981824243 L2.5305774724999734,-0.6052724427044726 L2.474873734152918,-0.5892556509887903 " />
			<path d="M-3.181980515339464,-0.5892556509887896 L-3.2149323514275583,-0.577136734818306 L-3.2441619308974623,-0.563999559627632 L-3.2693877569203673,-0.5499706435953646 L-3.2903668910018333,-0.53518509285188 L-3.306897292612294,-0.5197853003334421 L-3.318819764947805,-0.5039195744603865 L-3.3260194880822884,-0.4877407108459585 L-3.32842712474619,-0.47140452079103246 " />
			<path d="M-3.32842712474619,-0.4714045207910317 L-3.3260194880822884,-0.4550683307361049 L-3.318819764947805,-0.4388894671216769 L-3.306897292612294,-0.4230237412486213 L-3.2903668910018333,-0.40762394873018337 L-3.2693877569203673,-0.39283839798669873 L-3.2441619308974627,-0.37880948195443137 L-3.2149323514275583,-0.3656723067637575 L-3.181980515339464,-0.3535533905932738 L-3.1456237668280123,-0.3425694452305755 L-3.106212241255991,-0.3328262520739408 L-3.019768840928735,-0.3174245987058173 L-2.9259722857542543,-0.3079403073904933 L-2.82842712474619,-0.30473785412436505 L-2.730881963738126,-0.3079403073904933 L-2.637085408563645,-0.31742459870581724 L-2.5506420082363888,-0.3328262520739408 L-2.5112304826643674,-0.3425694452305754 L-2.4748737341529163,-0.35355339059327373 L-2.4419218980648214,-0.3656723067637575 L-2.4126923185949174,-0.3788094819544313 L-2.3874664925720124,-0.3928383979866987 L-2.366487358490547,-0.40762394873018326 L-2.3499569568800855,-0.42302374124862113 L-2.3380344845445746,-0.4388894671216769 L-2.3308347614100913,-0.4550683307361049 L-2.32842712474619,-0.4714045207910302 " />
			<path d="M-2.32842712474619,-0.4714045207910317 L-2.329781896406845,-0.48366528139097625 L-2.3338388697637993,-0.4958595998669253 L-2.3405760597269256,-0.50792139415051 L-2.3499569568800855,-0.5197853003334421 L-2.3764324781844683,-0.542663703029412 L-2.4126923185949174,-0.563999559627632 L-2.4579515620687102,-0.5833310132655347 L-2.511230482664367,-0.6002395963514878 L-2.571375752649579,-0.6143592891244103 L-2.6370854085636446,-0.6253844428762461 L-2.706937034794558,-0.6330763963234556 L-2.7794185545814094,-0.6372686419030644 L-2.8529609619098983,-0.6378704301585604 L-2.925972285754254,-0.6348687341915701 L-2.9968720514422995,-0.6283285316548686 L-3.0641254931591884,-0.6183913981824243 L-3.1262767769924062,-0.6052724427044726 L-3.1819805153394616,-0.5892556509887903 " />
			<path d="M-0.35355339059327373,0.35355339059327373 L-0.3865052266813685,0.36567230676375745 L-0.4157348061512727,0.3788094819544313 L-0.44096063217417747,0.39283839798669873 L-0.46193976625564337,0.40762394873018337 L-0.4784701678661044,0.4230237412486213 L-0.4903926402016152,0.4388894671216769 L-0.4975923633360984,0.45506833073610486 L-0.5,0.4714045207910309 " />
			<path d="M-0.5,0.4714045207910317 L-0.49759236333609846,0.48774071084595844 L-0.4903926402016152,0.5039195744603864 L-0.47847016786610447,0.5197853003334421 L-0.4619397662556434,0.53518509285188 L-0.4409606321741775,0.5499706435953646 L-0.41573480615127273,0.563999559627632 L-0.38650522668136855,0.5771367348183059 L-0.35355339059327384,0.5892556509887896 L-0.3171966420818226,0.6002395963514879 L-0.2777851165098011,0.6099827895081226 L-0.19134171618254517,0.6253844428762461 L-0.09754516100806433,0.6348687341915701 L-9.491641444660038e-17,0.6380711874576983 L0.09754516100806415,0.6348687341915701 L0.191341716182545,0.6253844428762461 L0.2777851165098009,0.6099827895081226 L0.31719664208182247,0.6002395963514879 L0.3535533905932737,0.5892556509887896 L0.3865052266813686,0.5771367348183059 L0.4157348061512726,0.563999559627632 L0.4409606321741774,0.5499706435953646 L0.46193976625564326,0.5351850928518801 L0.4784701678661043,0.5197853003334423 L0.49039264020161516,0.5039195744603865 L0.49759236333609846,0.48774071084595844 L0.5,0.4714045207910332 " />
			<path d="M0.5,0.4714045207910317 L0.4986452283393451,0.4591437601910871 L0.4945882549823905,0.44694944171513806 L0.4878510650192643,0.4348876474315534 L0.47847016786610447,0.4230237412486213 L0.4519946465617217,0.40014533855265133 L0.4157348061512727,0.3788094819544313 L0.37047556267747966,0.35947802831652864 L0.3171966420818229,0.34256944523057553 L0.25705137209661105,0.32844975245765307 L0.1913417161825451,0.31742459870581724 L0.12149008995163221,0.3097326452586077 L0.0490085701647806,0.3055403996789989 L-0.024533837163708678,0.304938611423503 L-0.09754516100806378,0.3079403073904933 L-0.16844492669610964,0.31448050992719484 L-0.23569836841299846,0.32441764339963913 L-0.2978496522462163,0.3375365988775908 L-0.35355339059327184,0.3535533905932731 " />
			<path d="M-4.242640687119285,0.4714045207910316 L9.49198177765771e-17,1.8856180831641267 " />
			<path d="M4.8904905977547084e-18,1.8856180831641267 L-4.890490597754709e-18,0.9428090415820634 " />
			<path d="M4.242640687119285,0.47140452079103173 L-9.49198177765771e-17,1.885618083164127 " />

       </g>
    </g>
    
</svg>
