<?xml version="1.0" encoding="UTF-8" standalone="no"?>
<svg
   xmlns:svg="http://www.w3.org/2000/svg"
   xmlns="http://www.w3.org/2000/svg"
   width="400.0"
   height="300.0"

>
    <g transform="scale(35.35533905932738, -35.35533905932738)   translate(3.0405591591021546,-3.7476659402887016)" stroke-width="0.0282842712474619"  fill="none">
       <!-- hidden lines -->
       <g  stroke="rgb(160,160,160)" fill="none" stroke-dasharray="0.0282842712474619,0.0282842712474619" >

       </g>

       <!-- solid lines -->
       <g  stroke="rgb(0,0,0)" fill="none">
			<path d="M2.474873734152916,2.4748737341529163 L2.474873734152916,-2.2391714737574007 " />
			<path d="M2.474873734152916,-2.2391714737574 L0.35355339059327345,-1.5320646925708528 " />
			<path d="M0.35355339059327373,3.181980515339464 L0.3535533905932737,-1.5320646925708532 " />
			<path d="M2.474873734152916,2.4748737341529163 L0.35355339059327345,3.181980515339464 " />
			<path d="M-0.35355339059327373,-3.181980515339464 L2.4748737341529163,-2.2391714737574 " />
			<path d="M-0.35355339059327373,-3.181980515339464 L-2.4748737341529163,-2.4748737341529163 " />
			<path d="M-2.474873734152916,2.2391714737574 L-2.474873734152916,-2.474873734152917 " />
			<path d="M-2.474873734152916,2.2391714737574 L0.353553390593274,3.181980515339464 " />
			<path d="M-2.474873734152916,-2.4748737341529163 L0.353553390593274,-1.532064692570853 " />
			<path d="M2.192031021678297,-2.2391714737574 L0.35355339059327373,-1.626345596729059 " />
			<path d="M-0.35355339059327373,-3.0876996111812574 L2.1920310216782974,-2.2391714737574 " />
			<path d="M-0.3535533905932738,-3.0876996111812574 L-2.1920310216782974,-2.4748737341529163 " />
			<path d="M-2.192031021678297,-2.4748737341529163 L0.35355339059327373,-1.6263455967290594 " />
			<path d="M-0.3535533905932738,-1.8620478571245749 L-0.3535533905932738,-3.087699611181258 " />

       </g>
    </g>
    
</svg>
