<?xml version="1.0" encoding="UTF-8" standalone="no"?>
<svg
   xmlns:svg="http://www.w3.org/2000/svg"
   xmlns="http://www.w3.org/2000/svg"
   width="400.0"
   height="300.0"

>
    <g transform="scale(60.232353839074314, -60.232353839074314)   translate(2.4533678018647747,-1.981963281073743)" stroke-width="0.01660237291525661"  fill="none">
       <!-- hidden lines -->
       <g  stroke="rgb(160,160,160)" fill="none" stroke-dasharray="0.01660237291525661,0.01660237291525661" >

       </g>

       <!-- solid lines -->
       <g  stroke="rgb(0,0,0)" fill="none">
			<path d="M-0.6,-1.4499158227686109 L-2.1213203435596424,-0.9428090415820632 " />
			<path d="M-2.1213203435596424,0.9428090415820634 L-2.1213203435596424,-0.9428090415820634 " />
			<path d="M2.1213203435596424,0.9428090415820634 L2.1213203435596424,-0.9428090415820634 " />
			<path d="M0.6,-1.4499158227686109 L2.1213203435596424,-0.9428090415820632 " />
			<path d="M-2.1213203435596424,-0.9428090415820634 L4.745990888828855e-17,-0.23570226039551578 " />
			<path d="M2.1213203435596424,-0.9428090415820634 L-4.745990888828855e-17,-0.23570226039551578 " />
			<path d="M0.4690415759823428,-0.786461849587949 L0.5351396198521211,-0.8121587078815382 L0.5635712525976825,-0.8261959856875657 L0.588696048718766,-0.8409175076283796 L0.6103665848050883,-0.8562368930241678 L0.6284557058215546,-0.8720642531439886 L0.6428572712089969,-0.8883067186410261 L0.6534867776794041,-0.9048689844770441 L0.6602818550513048,-0.9216538691386168 L0.6632026322159158,-0.9385628848638495 L0.6622319710866945,-0.9554968155337042 L0.6573755671595649,-0.9723562988370672 L0.6486619160937634,-0.9890424092936192 L0.6361421465093973,-1.0054572387135376 L0.619889719982799,-1.0215044706880985 L0.6000000000000024,-1.037089945740268 " />
			<path d="M-0.6,-1.0370899457402696 L-0.6223981433098266,-1.019272940983081 L-0.6400452843019302,-1.0008722581298355 L-0.65280671562113,-0.9820283566080286 L-0.6605850243968597,-0.9628850791022301 L-0.663320835832747,-0.9435885535480332 L-0.6609932664370715,-0.9242860776818105 L-0.653620083434418,-0.9051249946609347 L-0.6412575691416783,-0.8862515683372837 L-0.6240000913436684,-0.8678098667694967 L-0.6019793829478491,-0.8499406624965553 L-0.57536353641682,-0.8327803579673246 L-0.5443557206544676,-0.8164599443286576 L-0.5091926301402626,-0.8011040015200303 L-0.47014267815005917,-0.7868297473073674 L-0.4275039478552271,-0.7737461425151463 L-0.3816019169401606,-0.761953059286882 L-0.28143173943283406,-0.7425880037153515 L-0.17268485748068516,-0.729324735628343 L-0.05867536020414908,-0.722567456522759 L0.05712228372449826,-0.7225220962125452 L0.1711791114051068,-0.7291900370647899 L0.28001921175919653,-0.742368071871733 L0.3803256548116232,-0.7616545966425434 L0.42631071149306277,-0.7734116858155178 L0.4690415759823387,-0.7864618495879476 " />
			<path d="M-2.1213203435596424,0.9428090415820634 L4.745990888828855e-17,1.6499158227686108 " />
			<path d="M9.780981195509417e-18,1.6499158227686108 L-9.780981195509418e-18,-0.2357022603955159 " />
			<path d="M2.1213203435596424,0.9428090415820634 L-4.745990888828855e-17,1.6499158227686108 " />
			<path d="M0.4242640687119286,-0.8383745408759616 L0.35741958269545987,-0.8191543908171421 L0.28283804209559876,-0.8034116442436001 L0.20213391203533196,-0.7914870840766669 L0.11705419320967665,-0.7836388410326249 L0.0294406045964508,-0.7800368058722367 L-0.05881028419773658,-0.7807589517788317 L-0.14578810794195876,-0.7857896464743623 L-0.229610059419054,-0.7950199906110138 L-0.30846164651593294,-0.8082501751132166 L-0.38063597049818737,-0.8251938064407237 L-0.44457067521297566,-0.8454841061438675 L-0.4988817673815271,-0.8686818505093507 L-0.5423935758740659,-0.8942848784272146 L-0.5597956793008434,-0.9078168898062735 L-0.5741642014393252,-0.9217389616623786 L-0.585421278023117,-0.9359756490818971 L-0.5935059059788685,-0.9504498022221988 L-0.5983742740072141,-0.9650829843933376 L-0.6,-0.9797958971132693 " />
			<path d="M0.6,-0.9797958971132711 L0.5971108360033182,-0.960192469047359 L0.5884711682419382,-0.9407778327100454 L0.5741642014393252,-0.9217389616623786 L0.554327719506772,-0.903259210640253 L0.5291527586090129,-0.8855165497480715 L0.498881767381527,-0.8686818505093505 L0.4638062720176419,-0.8529172402805418 L0.42426406871193006,-0.8383745408759621 " />
			<path d="M0.4242640687119286,-1.7441967269268173 L0.35741958269545987,-1.7249765768679977 L0.28283804209559876,-1.7092338302944556 L0.20213391203533193,-1.6973092701275225 L0.11705419320967665,-1.6894610270834807 L0.029440604596450797,-1.6858589919230922 L-0.058810284197736595,-1.6865811378296873 L-0.1457881079419588,-1.691611832525218 L-0.22961005941905402,-1.7008421766618693 L-0.30846164651593294,-1.7140723611640722 L-0.38063597049818737,-1.7310159924915793 L-0.44457067521297566,-1.7513062921947231 L-0.4988817673815271,-1.7745040365602063 L-0.5423935758740659,-1.8001070644780701 L-0.5597956793008434,-1.813639075857129 L-0.5741642014393252,-1.8275611477132343 L-0.585421278023117,-1.8417978351327526 L-0.5935059059788685,-1.8562719882730545 L-0.5983742740072141,-1.8709051704441932 L-0.6,-1.885618083164125 " />
			<path d="M-0.6,-1.8856180831641267 L-0.5971108360033182,-1.9052215112300388 L-0.5884711682419382,-1.9246361475673524 L-0.5741642014393252,-1.9436750186150191 L-0.5543277195067721,-1.9621547696371446 L-0.529152758609013,-1.9798974305293262 L-0.4988817673815271,-1.9967321297680471 L-0.4638062720176422,-2.012496739996856 L-0.4242640687119285,-2.0270394394014364 L-0.38063597049818726,-2.040220173836674 L-0.33334213981176136,-2.0519120056246356 L-0.28283804209559865,-2.062002336033798 L-0.2296100594190539,-2.070393989666384 L-0.17417080635267743,-2.0770061503105683 L-0.11705419320967701,-2.081775139244773 L-5.84884696700864e-17,-2.085618083164127 L0.1170541932096769,-2.081775139244773 L0.17417080635267726,-2.0770061503105683 L0.2296100594190538,-2.070393989666384 L0.2828380420955986,-2.062002336033798 L0.33334213981176114,-2.0519120056246356 L0.3806359704981872,-2.040220173836674 L0.42426406871192845,-2.0270394394014364 L0.4638062720176422,-2.012496739996856 L0.4988817673815272,-1.9967321297680471 L0.5291527586090129,-1.9798974305293262 L0.5543277195067721,-1.9621547696371446 L0.5741642014393252,-1.9436750186150191 L0.5884711682419382,-1.9246361475673524 L0.597110836003318,-1.9052215112300388 L0.6,-1.8856180831641276 " />
			<path d="M0.6,-1.8856180831641267 L0.5971108360033182,-1.8660146550982146 L0.5884711682419382,-1.846600018760901 L0.5741642014393253,-1.8275611477132343 L0.5543277195067721,-1.8090813966911088 L0.529152758609013,-1.7913387357989272 L0.49888176738152723,-1.7745040365602063 L0.46380627201764224,-1.7587394263313976 L0.42426406871193045,-1.744196726926818 " />
			<path d="M-0.6,-0.9797958971132711 L-0.6,-1.8856180831641267 " />
			<path d="M0.6,-0.9797958971132711 L0.6,-1.8856180831641267 " />

       </g>
    </g>
    
</svg>
