<?xml version="1.0" encoding="UTF-8" standalone="no"?>
<svg
   xmlns:svg="http://www.w3.org/2000/svg"
   xmlns="http://www.w3.org/2000/svg"
   width="500.0"
   height="400.0"

>
    <g transform="scale(64.93837786407067, -64.93837786407067)   translate(3.1364114116629973,-2.57072598671376)" stroke-width="0.015399214345840372"  fill="none">
       <!-- hidden lines -->
       <g  stroke="rgb(160,160,160)" fill="none" stroke-dasharray="0.015399214345840372,0.015399214345840372" >

       </g>

       <!-- solid lines -->
       <g  stroke="rgb(0,0,0)" fill="none">
			<path d="M-1.4671471793264125e-17,-2.3570226039551585 L-2.82842712474619,-1.4142135623730951 " />
			<path d="M-2.82842712474619,1.2256517540566823 L-2.82842712474619,-1.414213562373095 " />
			<path d="M2.82842712474619,1.2256517540566823 L2.82842712474619,-1.414213562373095 " />
			<path d="M-1.4671471793264125e-17,-2.3570226039551585 L2.82842712474619,-1.4142135623730951 " />
			<path d="M-2.82842712474619,1.2256517540566823 L-2.545584412271571,1.4142135623730951 " />
			<path d="M-2.82842712474619,-1.414213562373095 L6.327987851771807e-17,-0.4714045207910315 " />
			<path d="M2.82842712474619,-1.414213562373095 L-6.327987851771807e-17,-0.4714045207910315 " />
			<path d="M-0.35355339059327373,-1.5320646925708528 L-0.3865052266813685,-1.5199457764003692 L-0.4157348061512727,-1.5068086012096953 L-0.44096063217417747,-1.492779685177428 L-0.46193976625564337,-1.4779941344339433 L-0.4784701678661044,-1.4625943419155054 L-0.4903926402016152,-1.4467286160424497 L-0.4975923633360984,-1.4305497524280217 L-0.5,-1.4142135623730956 " />
			<path d="M-0.5,-1.414213562373095 L-0.49759236333609846,-1.397877372318168 L-0.4903926402016152,-1.3816985087037401 L-0.47847016786610447,-1.3658327828306847 L-0.4619397662556434,-1.3504329903122467 L-0.4409606321741775,-1.335647439568762 L-0.41573480615127273,-1.3216185235364946 L-0.38650522668136855,-1.3084813483458206 L-0.35355339059327384,-1.296362432175337 L-0.3171966420818226,-1.2853784868126388 L-0.2777851165098011,-1.275635293656004 L-0.1913417161825452,-1.2602336402878804 L-0.09754516100806435,-1.2507493489725565 L-1.0469739564210981e-16,-1.2475468957064282 L0.09754516100806414,-1.2507493489725565 L0.19134171618254497,-1.2602336402878804 L0.2777851165098009,-1.275635293656004 L0.31719664208182247,-1.2853784868126388 L0.3535533905932737,-1.296362432175337 L0.3865052266813686,-1.3084813483458206 L0.4157348061512726,-1.3216185235364946 L0.4409606321741774,-1.3356474395687619 L0.46193976625564326,-1.3504329903122465 L0.4784701678661043,-1.3658327828306844 L0.49039264020161516,-1.3816985087037401 L0.49759236333609846,-1.397877372318168 L0.5,-1.4142135623730934 " />
			<path d="M0.5,-1.414213562373095 L0.4986452283393451,-1.4264743229730394 L0.4945882549823905,-1.4386686414489886 L0.4878510650192643,-1.4507304357325732 L0.47847016786610447,-1.4625943419155054 L0.4519946465617217,-1.4854727446114753 L0.4157348061512727,-1.5068086012096953 L0.37047556267747966,-1.5261400548475978 L0.3171966420818229,-1.543048637933551 L0.25705137209661105,-1.5571683307064736 L0.19134171618254509,-1.5681934844583094 L0.1214900899516322,-1.575885437905519 L0.04900857016478059,-1.5800776834851278 L-0.02453383716370869,-1.5806794717406236 L-0.09754516100806379,-1.5776777757736333 L-0.16844492669610966,-1.5711375732369317 L-0.2356983684129985,-1.5612004397644874 L-0.2978496522462163,-1.5480814842865358 L-0.35355339059327184,-1.5320646925708534 " />
			<path d="M1.2715275554162241e-17,2.168460795638746 L-1.4671471793264125e-17,-0.47140452079103135 " />
			<path d="M-2.82842712474619,1.2256517540566825 L6.327987851771807e-17,2.168460795638746 " />
			<path d="M2.82842712474619,1.2256517540566825 L-6.327987851771807e-17,2.168460795638746 " />
			<path d="M2.545584412271571,1.4142135623730951 L2.82842712474619,1.2256517540566823 " />
			<path d="M-2.545584412271571,1.4142135623730951 L-2.063376413182054e-16,2.262741699796952 " />
			<path d="M2.5455844122715705,1.4142135623730951 L-2.377515685318572e-16,2.262741699796952 " />
			<path d="M-2.5901599533172258e-17,2.168460795638746 L-2.2145013084831376e-17,2.2627416997969525 " />

       </g>
    </g>
    
</svg>
