<?xml version="1.0" encoding="UTF-8" standalone="no"?>
<svg
   xmlns:svg="http://www.w3.org/2000/svg"
   xmlns="http://www.w3.org/2000/svg"
   width="500.0"
   height="400.0"

>
    <g transform="scale(65.55981276535448, -65.55981276535448)   translate(2.9263852782564834,-2.59305194492315)" stroke-width="0.01525324673484206"  fill="none">
       <!-- hidden lines -->
       <g  stroke="rgb(160,160,160)" fill="none" stroke-dasharray="0.01525324673484206,0.01525324673484206" >

       </g>

       <!-- solid lines -->
       <g  stroke="rgb(0,0,0)" fill="none">
			<path d="M-0.35355339059327373,-2.2391714737574007 L-2.4748737341529163,-1.532064692570853 " />
			<path d="M-0.3535533905932738,-2.2391714737574 L-0.3171966420818228,-2.2501554191200985 L-0.2777851165098012,-2.259898612276733 L-0.19134171618254503,-2.275300265644857 L-0.09754516100806428,-2.284784556960181 L-2.6550966060977347e-16,-2.287987010226309 L0.09754516100806376,-2.284784556960181 L0.1913417161825445,-2.275300265644857 L0.2777851165098008,-2.2598986122767335 L0.3171966420818225,-2.2501554191200985 L0.35355339059327184,-2.239171473757401 " />
			<path d="M-2.474873734152916,-1.532064692570853 L-2.507825570241011,-1.5199457764003694 L-2.5370551497109153,-1.5068086012096955 L-2.56228097573382,-1.4927796851774282 L-2.583260109815286,-1.4779941344339433 L-2.5997905114257467,-1.4625943419155056 L-2.6117129837612576,-1.44672861604245 L-2.618912706895741,-1.430549752428022 L-2.6213203435596424,-1.4142135623730958 " />
			<path d="M-2.6213203435596424,-1.4142135623730951 L-2.618912706895741,-1.3978773723181683 L-2.6117129837612576,-1.3816985087037403 L-2.5997905114257467,-1.3658327828306849 L-2.583260109815286,-1.350432990312247 L-2.56228097573382,-1.3356474395687623 L-2.5370551497109153,-1.3216185235364948 L-2.507825570241011,-1.3084813483458209 L-2.4748737341529177,-1.2963624321753378 " />
			<path d="M0.35355339059327373,-2.2391714737574007 L2.4748737341529163,-1.532064692570853 " />
			<path d="M-2.474873734152916,-1.296362432175337 L-0.35355339059327345,-0.5892556509887894 " />
			<path d="M2.474873734152916,-1.296362432175337 L2.507825570241011,-1.3084813483458206 L2.537055149710915,-1.3216185235364946 L2.56228097573382,-1.3356474395687619 L2.583260109815286,-1.3504329903122465 L2.5997905114257467,-1.3658327828306844 L2.6117129837612576,-1.3816985087037401 L2.618912706895741,-1.397877372318168 L2.6213203435596424,-1.4142135623730934 " />
			<path d="M2.6213203435596424,-1.414213562373095 L2.618912706895741,-1.4305497524280217 L2.6117129837612576,-1.4467286160424497 L2.5997905114257467,-1.4625943419155054 L2.583260109815286,-1.4779941344339431 L2.56228097573382,-1.4927796851774278 L2.537055149710915,-1.5068086012096953 L2.507825570241011,-1.5199457764003692 L2.474873734152917,-1.5320646925708528 " />
			<path d="M0.35355339059327384,-0.5892556509887896 L0.3171966420818226,-0.5782717056260913 L0.2777851165098011,-0.5685285124694567 L0.19134171618254514,-0.5531268591013332 L0.09754516100806432,-0.5436425677860092 L7.535445205558155e-17,-0.5404401145198809 L-0.09754516100806417,-0.5436425677860092 L-0.19134171618254503,-0.5531268591013332 L-0.2777851165098009,-0.5685285124694567 L-0.31719664208182247,-0.5782717056260913 L-0.35355339059327057,-0.5892556509887886 " />
			<path d="M2.474873734152916,-1.296362432175337 L0.35355339059327345,-0.5892556509887894 " />
			<path d="M-2.6213203435596424,1.414213562373095 L-2.618912706895741,1.4305497524280217 L-2.6117129837612576,1.4467286160424497 L-2.5997905114257467,1.4625943419155052 L-2.583260109815286,1.4779941344339431 L-2.56228097573382,1.4927796851774278 L-2.5370551497109153,1.5068086012096953 L-2.507825570241011,1.5199457764003692 L-2.4748737341529177,1.5320646925708523 " />
			<path d="M-2.474873734152916,1.5320646925708528 L-0.35355339059327345,2.2391714737574007 " />
			<path d="M2.474873734152916,1.5320646925708532 L2.507825570241011,1.5199457764003694 L2.537055149710915,1.5068086012096955 L2.56228097573382,1.4927796851774282 L2.583260109815286,1.4779941344339436 L2.5997905114257467,1.4625943419155056 L2.6117129837612576,1.44672861604245 L2.618912706895741,1.430549752428022 L2.6213203435596424,1.4142135623730967 " />
			<path d="M0.35355339059327384,2.2391714737574 L0.3171966420818226,2.2501554191200985 L0.2777851165098011,2.259898612276733 L0.1913417161825452,2.275300265644857 L0.09754516100806435,2.284784556960181 L1.0469739564210981e-16,2.287987010226309 L-0.09754516100806414,2.284784556960181 L-0.19134171618254497,2.275300265644857 L-0.2777851165098009,2.259898612276733 L-0.31719664208182247,2.2501554191200985 L-0.35355339059327057,2.2391714737574016 " />
			<path d="M2.474873734152916,1.5320646925708528 L0.35355339059327345,2.2391714737574007 " />
			<path d="M-2.474873734152916,1.532064692570853 L-2.474873734152916,-1.2963624321753369 " />
			<path d="M-0.35355339059327373,2.2391714737574 L-0.3535533905932738,-0.5892556509887896 " />
			<path d="M2.474873734152916,1.532064692570853 L2.474873734152916,-1.2963624321753369 " />
			<path d="M0.35355339059327373,2.2391714737574 L0.3535533905932737,-0.5892556509887896 " />
			<path d="M-2.6213203435596424,1.4142135623730951 L-2.6213203435596424,-1.4142135623730947 " />
			<path d="M2.6213203435596424,1.414213562373095 L2.6213203435596424,-1.414213562373095 " />

       </g>
    </g>
    
</svg>
