<?xml version="1.0" encoding="UTF-8" standalone="no"?>
<svg
   xmlns:svg="http://www.w3.org/2000/svg"
   xmlns="http://www.w3.org/2000/svg"
   width="500.0"
   height="400.0"

>
    <g transform="scale(66.29126073623883, -66.29126073623883)   translate(3.130126018052451,-2.5173001410241103)" stroke-width="0.015084944665313014"  fill="none">
       <!-- hidden lines -->
       <g  stroke="rgb(160,160,160)" fill="none" stroke-dasharray="0.015084944665313014,0.015084944665313014" >

       </g>

       <!-- solid lines -->
       <g  stroke="rgb(0,0,0)" fill="none">
			<path d="M-2.82842712474619,1.1313708498984758 L-2.82842712474619,-1.1313708498984765 " />
			<path d="M2.82842712474619,1.1313708498984758 L2.82842712474619,-1.1313708498984765 " />
			<path d="M-2.8284271247461903,1.1313708498984767 L-2.404163056034262,1.4142135623730956 " />
			<path d="M1.4356360955217478e-16,-2.2156012477178493 L-2.4041630560342617,-1.4142135623730951 " />
			<path d="M-2.8284271247461903,-1.1313708498984762 L-2.404163056034262,-1.4142135623730951 " />
			<path d="M1.1737177434611298e-17,2.0741798914805396 L-1.1737177434611306e-17,-0.1885618083164129 " />
			<path d="M-2.82842712474619,1.131370849898476 L6.327987851771807e-17,2.0741798914805396 " />
			<path d="M-2.82842712474619,-1.131370849898476 L6.327987851771807e-17,-0.18856180831641262 " />
			<path d="M2.82842712474619,1.131370849898476 L-6.327987851771807e-17,2.0741798914805396 " />
			<path d="M2.82842712474619,-1.131370849898476 L-6.327987851771807e-17,-0.18856180831641262 " />
			<path d="M2.8284271247461903,1.1313708498984767 L2.404163056034262,1.4142135623730956 " />
			<path d="M-1.990747607834326e-16,-2.215601247717849 L2.4041630560342617,-1.4142135623730947 " />
			<path d="M2.8284271247461903,-1.1313708498984762 L2.404163056034262,-1.4142135623730951 " />
			<path d="M-2.4041630560342613,1.414213562373095 L3.1359281672849755e-16,2.215601247717849 " />
			<path d="M2.4041630560342613,1.414213562373095 L-3.1359281672849755e-16,2.215601247717849 " />
			<path d="M2.1129090042222e-17,2.0741798914805405 L2.6763969714733318e-17,2.21560124771785 " />
			<path d="M-2.4041630560342613,-1.4142135623730951 L3.1359281672849755e-16,-0.612825877028341 " />
			<path d="M2.4041630560342613,-1.4142135623730951 L-3.1359281672849755e-16,-0.612825877028341 " />
			<path d="M-2.3452648270006186e-18,-0.18856180831641334 L-2.57897387179495e-18,-0.6128258770283417 " />

       </g>
    </g>
    
</svg>
