<?xml version="1.0" encoding="UTF-8" standalone="no"?>
<svg
   xmlns:svg="http://www.w3.org/2000/svg"
   xmlns="http://www.w3.org/2000/svg"
   width="500.0"
   height="400.0"

>
    <g transform="scale(64.3668683428032, -64.3668683428032)   translate(1.81071896132494,-2.641109190781267)" stroke-width="0.015535943036318452"  fill="none">
       <!-- hidden lines -->
       <g  stroke="rgb(160,160,160)" fill="none" stroke-dasharray="0.015535943036318452,0.015535943036318452" >

       </g>

       <!-- solid lines -->
       <g  stroke="rgb(0,0,0)" fill="none">
			<path d="M1.0606601717798214,2.0506096654409878 L0.9797592644306656,2.075660698100956 L0.8935489567386496,2.0986600405880367 L0.8024964298306458,2.1194830574725674 L0.7070951052389969,2.1380169070218917 L0.6078619710074843,2.1541611526994795 L0.5053347800883299,2.1678283074392244 L0.4000691362123478,2.178944307745434 L0.2926354830241917,2.1874489150493295 L0.18361601279882397,2.193296042147069 L0.07360151149112705,2.1964540029503 L-0.03681184278436934,2.196905684195816 L-0.1470257104943414,2.1946486381838124 L-0.256442833140452,2.189695096042185 L-0.36447026985489694,2.182071901444986 L-0.47052261059833794,2.1718203651442325 L-0.574025148547635,2.1589960411033573 L-0.6744169944819098,2.1436684254454716 L-0.7711541162898323,2.12592057984785 L-0.8637122871267685,2.105848681423506 L-0.9515899262454683,2.0835615015290827 L-1.0343108171056001,2.0591798163234474 L-1.1114266880324393,2.032835752271223 L-1.1825196414399097,2.004672070138027 L-1.2472044184538178,1.9748413913575151 L-1.3051304866630669,1.9435053709626062 L-1.3559839396851647,1.9108338215628553 L-1.3994891982521085,1.8770037931152082 L-1.4354105035983133,1.8421986134749453 L-1.4635531950577927,1.8066068949261491 L-1.4837647649471715,1.7704215120753948 L-1.4959356850180354,1.7338385566475478 L-1.4989835768825241,1.7154598863183939 L-1.5,1.6970562748477187 " />
			<path d="M1.5,1.697056274847714 L1.4981931843077585,1.721590112011423 L1.4927770900082953,1.7460648450124943 L1.4837647649471712,1.770421512075395 L1.4711779206048456,1.7946014358557782 L1.455046879791816,1.8185463647993458 L1.4354105035983133,1.842198613474945 L1.4123160977745313,1.865501201543824 L1.3858192987669302,1.8883979910302588 L1.355983939685165,1.910833821562855 L1.3228818965225326,1.9327546432607128 L1.2865929150004083,1.9541076469443248 L1.2472044184538182,1.974841391357515 L1.1595156800441058,2.0142529169295367 L1.0606601717798263,2.050609665440986 " />
			<path d="M1.0606601717798214,-1.3435028842544403 L0.9797592644306656,-1.3184518515944719 L0.8935489567386496,-1.2954525091073914 L0.8024964298306458,-1.2746294922228605 L0.7070951052389969,-1.2560956426735366 L0.6078619710074843,-1.2399513969959486 L0.5053347800883299,-1.2262842422562037 L0.4000691362123478,-1.215168241949994 L0.2926354830241917,-1.2066636346460988 L0.18361601279882392,-1.200816507548359 L0.07360151149112702,-1.197658546745128 L-0.03681184278436938,-1.197206865499612 L-0.14702571049434146,-1.1994639115116157 L-0.256442833140452,-1.2044174536532435 L-0.36447026985489694,-1.2120406482504422 L-0.47052261059833794,-1.2222921845511958 L-0.574025148547635,-1.2351165085920708 L-0.6744169944819098,-1.2504441242499564 L-0.7711541162898323,-1.2681919698475779 L-0.8637122871267685,-1.2882638682719223 L-0.9515899262454683,-1.3105510481663456 L-1.0343108171056001,-1.3349327333719805 L-1.1114266880324393,-1.361276797424205 L-1.1825196414399097,-1.3894404795574007 L-1.2472044184538178,-1.419271158337913 L-1.3051304866630669,-1.4506071787328219 L-1.3559839396851647,-1.4832787281325728 L-1.3994891982521085,-1.51710875658022 L-1.4354105035983133,-1.5519139362204828 L-1.4635531950577927,-1.587505654769279 L-1.4837647649471715,-1.6236910376200333 L-1.4959356850180354,-1.6602739930478803 L-1.4989835768825241,-1.6786526633770342 L-1.5,-1.6970562748477094 " />
			<path d="M1.5,-1.697056274847714 L1.4981931843077585,-1.672522437684005 L1.4927770900082953,-1.6480477046829338 L1.4837647649471712,-1.623691037620033 L1.4711779206048456,-1.5995111138396498 L1.455046879791816,-1.5755661848960822 L1.4354105035983133,-1.551913936220483 L1.4123160977745313,-1.5286113481516042 L1.3858192987669302,-1.5057145586651692 L1.355983939685165,-1.483278728132573 L1.3228818965225326,-1.4613579064347153 L1.2865929150004083,-1.4400049027511033 L1.2472044184538182,-1.4192711583379132 L1.1595156800441058,-1.3798596327658914 L1.0606601717798263,-1.3435028842544419 " />
			<path d="M0.919238815542512,-1.5792051446499562 L0.8247112694127388,-1.5506468867069405 L0.7222413029254828,-1.5253145844996905 L0.6128157578737973,-1.5034522019465062 L0.49748846207461744,-1.4852702857425693 L0.3773700804308023,-1.4709439376801696 L0.25361741862096726,-1.4606111283227268 L0.12742228242842857,-1.4543713682728414 L2.2398288726945014e-16,-1.4522847498307934 L-0.12742228242842815,-1.4543713682728414 L-0.2536174186209668,-1.4606111283227268 L-0.37737008043080184,-1.4709439376801696 L-0.497488462074617,-1.485270285742569 L-0.6128157578737968,-1.5034522019465062 L-0.7222413029254834,-1.5253145844996905 L-0.8247112694127402,-1.550646886706941 L-0.9192388155425124,-1.5792051446499564 L-1.0049135893715584,-1.6107143266932138 L-1.0809104959933094,-1.644870982188966 L-1.1464976436528624,-1.6813461638728615 L-1.175186081060477,-1.7003442093443382 L-1.2010433922646733,-1.7197885958059216 L-1.2240072847379275,-1.7396324800274985 L-1.2440224364518717,-1.75982805635386 L-1.2610406291529073,-1.7803266718727127 L-1.2750208645241998,-1.8010789436238046 L-1.2859294629542153,-1.8220348775668034 L-1.2937401446738561,-1.843143989021317 L-1.2984340930667242,-1.8643554242889122 L-1.3,-1.885618083164127 L-1.298434093066724,-1.9068807420393417 L-1.293740144673856,-1.9280921773069368 L-1.285929462954215,-1.9492012887614505 L-1.2750208645241994,-1.9701572227044493 L-1.261040629152907,-1.9909094944555414 L-1.2440224364518713,-2.011408109974394 L-1.2240072847379269,-2.0316036863007554 L-1.2010433922646726,-2.0514475705223325 L-1.1751860810604764,-2.0708919569839157 L-1.1464976436528616,-2.0898900024553924 L-1.0809104959933085,-2.1263651841392877 L-1.0049135893715573,-2.1605218396350403 L-0.9192388155425113,-2.1920310216782974 L-0.8247112694127389,-2.2205892796213127 L-0.7222413029254819,-2.245921581828563 L-0.6128157578737954,-2.2677839643817475 L-0.49748846207461545,-2.2859658805856844 L-0.37737008043080017,-2.300292228648084 L-0.2536174186209663,-2.3106250380055267 L-0.1274222824284288,-2.3168647980554122 L7.323210496695192e-16,-2.31895141649746 L0.12742228242843023,-2.316864798055412 L0.25361741862096776,-2.3106250380055267 L0.37737008043080167,-2.300292228648084 L0.4974884620746169,-2.2859658805856844 L0.6128157578737967,-2.2677839643817475 L0.7222413029254823,-2.245921581828563 L0.8247112694127383,-2.220589279621313 L0.9192388155425123,-2.192031021678297 L1.0049135893715597,-2.160521839635039 L1.08091049599331,-2.126365184139287 L1.1464976436528622,-2.089890002455392 L1.175186081060477,-2.0708919569839153 L1.2010433922646733,-2.051447570522332 L1.2240072847379273,-2.031603686300755 L1.2440224364518717,-2.0114081099743935 L1.2610406291529073,-1.9909094944555408 L1.2750208645241998,-1.9701572227044488 L1.2859294629542153,-1.94920128876145 L1.2937401446738561,-1.9280921773069364 L1.2984340930667242,-1.9068807420393412 L1.3,-1.885618083164127 L1.2984340930667242,-1.8643554242889124 L1.2937401446738561,-1.8431439890213175 L1.2859294629542155,-1.8220348775668036 L1.2750208645241998,-1.8010789436238048 L1.2610406291529077,-1.7803266718727129 L1.2440224364518722,-1.7598280563538602 L1.2240072847379269,-1.739632480027498 L1.2010433922646728,-1.7197885958059211 L1.1751860810604764,-1.7003442093443377 L1.1464976436528607,-1.6813461638728604 L1.080910495993308,-1.6448709821889653 L1.0049135893715575,-1.6107143266932133 L0.9192388155425276,-1.5792051446499613 " />
			<path d="M-1.5,1.697056274847714 L-1.5,-1.6970562748477138 " />
			<path d="M1.5,1.697056274847714 L1.5,-1.6970562748477138 " />
			<path d="M0.9824843687458793,2.1932058729719874 L0.8789657302627398,2.224534073094464 L0.7675711770387695,2.252163791533149 L0.6492477632891895,2.275880842936749 L0.5250111750673587,2.2955010633255966 L0.3959457302647745,2.3108703100916492 L0.26320437861107204,2.32186446199849 L0.12800870167402445,2.3283894191813275 L-0.008351087140456615,2.3303811031469963 L-0.14821145892519308,2.327705911641151 L-0.2866498597862885,2.3202608922300776 L-0.42227452614439814,2.308122749251807 L-0.553773877249696,2.291400517454802 L-0.6799165151818745,2.27023556199796 L-0.7995512248501448,2.2448015784506126 L-0.9116069739932364,2.2153045927925237 L-1.0150929131793966,2.181982961413892 L-1.1063671490825238,2.1463145756461244 L-1.1882422128065409,2.107558554195021 L-1.2602512732884252,2.0660319961239657 L-1.3221516544770597,2.0221144327190013 L-1.3736519717668907,1.976564441565381 L-1.4155767647479158,1.929478661962202 L-1.4345158162518044,1.9033997081196996 L-1.450894313890866,1.8770058414018478 L-1.4726132611710254,1.8327306436686885 L-1.4878997111897747,1.7878574716639815 L-1.4969852576767584,1.7425655459809815 L-1.4999999999999998,1.6970562748477163 " />
			<path d="M1.4999999999999998,1.697056274847714 L1.4969723267167458,1.7426627726020372 L1.4878476276358286,1.7880505443078882 L1.472494654504925,1.8330169602734354 L1.4506797463703383,1.8773817573310119 L1.4342954038059401,1.9037272415411488 L1.4153579519410369,1.9297583957462119 L1.3736116123469573,1.9766045788418554 L1.3223845789214796,2.021930033080801 L1.2900916808980083,2.0460286519219713 L1.254808899614271,2.069480015541701 L1.2165516557341183,2.092217040724464 L1.1753538863231712,2.1141778827609 L1.0843651011802398,2.155549831088181 L0.982484368745884,2.193205872971986 " />
			<path d="M-1.5,-1.697056274847714 L-1.4969723267167447,-1.7426627726020372 L-1.4878476276358301,-1.7880505443078873 L-1.472494654504925,-1.8330169602734352 L-1.450679746370339,-1.8773817573310114 L-1.4266915529797555,-1.9146550431512566 L-1.3974867258783301,-1.9512626686179793 L-1.3627952152498115,-1.9870750145905531 L-1.322384558545222,-2.0219335718268345 L-1.2830480951064789,-2.050928608260778 L-1.2393651687820142,-2.0789634209209753 L-1.1913659476740492,-2.1059211855344206 L-1.1391312928896487,-2.1316965421133904 L-1.0544261698393125,-2.167441139551806 L-0.9612276559811439,-2.2001474126840006 L-0.8601860907422133,-2.229595477229455 L-0.7520350484445699,-2.2555857313762804 L-0.6375913383052427,-2.277938855781221 L-0.5177550044362391,-2.2964958135696514 L-0.39350932584454523,-2.311117850335579 L-0.2659208164321252,-2.3216864941416424 L-0.09073472931081672,-2.329393209541576 L0.08596795665838008,-2.3294855128511034 L0.26129222550495135,-2.321985016084956 L0.43250225093709094,-2.307003821310983 L0.5157530050843301,-2.296767737441164 L0.5970213963416994,-2.284744520650151 L0.676010218519857,-2.2709736340238633 L0.7524322147843843,-2.2555001962765417 L0.8260100776557813,-2.238374981750746 L0.8964764490094645,-2.219654420417356 L0.9635739200757729,-2.199400597875571 L1.0270550314399636,-2.17768125535291 L1.1138682309622059,-2.1430626726178326 L1.1919503194940484,-2.105613498511175 L1.260897281569738,-2.065618916602941 L1.320498956380435,-2.023418045231327 L1.3485600281112406,-2.0000563726353007 L1.3739875396606032,-1.9762304007046583 L1.3968410997712881,-1.9519941082143188 L1.4171956393664047,-1.927395332569251 L1.4358744320330978,-1.9013664748733072 L1.4520148591870603,-1.8750274825256814 L1.4732328148433254,-1.831224118032262 L1.4881718200682177,-1.786841719243286 L1.4970528220030512,-1.7420540860687055 L1.4999999999999998,-1.6970562748477176 " />

       </g>
    </g>
    
</svg>
