<?xml version="1.0" encoding="UTF-8" standalone="no"?>
<svg
   xmlns:svg="http://www.w3.org/2000/svg"
   xmlns="http://www.w3.org/2000/svg"
   width="500.0"
   height="400.0"

>
    <g transform="scale(47.91859177457443, -47.91859177457443)   translate(2.8922482699925105,-3.599355051179058)" stroke-width="0.02086872679197971"  fill="none">
       <!-- hidden lines -->
       <g  stroke="rgb(160,160,160)" fill="none" stroke-dasharray="0.02086872679197971,0.02086872679197971" >

       </g>

       <!-- solid lines -->
       <g  stroke="rgb(0,0,0)" fill="none">
			<path d="M-0.5489928981781285,-3.067066513375931 L-0.5866264223408332,-3.0760744004709304 L-0.6258768571283209,-3.0785954791938077 L-0.6662174407875283,-3.0745959153245117 L-0.7071067811865459,-3.0641293851417064 " />
			<path d="M-0.7071067811865475,-3.064129385141706 L-2.1213203435596424,-2.592724864350674 " />
			<path d="M-2.474873734152916,2.2391714737574 L-2.474873734152916,-2.0034692133618845 " />
			<path d="M-2.4748737341529163,-2.003469213361884 L-2.473171277941238,-2.050242421832141 L-2.4680803048901794,-2.097700149543778 L-2.4596498438532306,-2.145385352635899 L-2.4479610847787368,-2.192838796535343 L-2.4331265968063103,-2.2396034786366683 L-2.415289244164482,-2.285229029487063 L-2.394620810310082,-2.3292760500903746 L-2.3713203435596424,-2.3713203435596424 L-2.3456122401453015,-2.4109570003650083 L-2.317744083156418,-2.447804297833837 L-2.287984258179079,-2.4815073763487208 L-2.2566193685961915,-2.5117416568395847 L-2.2239514754402316,-2.5382159666575634 L-2.1902951883803783,-2.5606753437267797 L-2.1559746358594154,-2.578903491968512 L-2.1213203435596455,-2.592724864350673 " />
			<path d="M2.474873734152916,2.4748737341529163 L2.474873734152916,-1.7677669529663684 " />
			<path d="M2.474873734152916,-1.7677669529663689 L2.471493368450902,-1.8316714749912562 L2.461416911495872,-1.8921004225243272 L2.444837047676633,-1.9478982589644092 L2.4342027066313374,-1.9737230489590605 L2.422070821063415,-1.9979980049099915 L2.4084994576487992,-2.020606939931612 L2.3935535728163098,-2.04144164119124 L2.3773047018476006,-2.0604023878466866 L2.359830616488829,-2.0773984283387383 L2.341214952712826,-2.0923484147540936 L2.3215468104133943,-2.1051807921797487 L2.3009203269477245,-2.1158341411852915 L2.2794342265680627,-2.124257471793867 " />
			<path d="M2.2794342265680614,-2.1242574717938676 L2.2418007024053566,-2.1332653588888673 L2.2025502676178688,-2.135786437611744 L2.1622096839586615,-2.1317868737424486 L2.121320343559644,-2.121320343559643 " />
			<path d="M-2.474873734152916,2.2391714737574 L0.353553390593274,3.181980515339464 " />
			<path d="M2.474873734152916,2.4748737341529163 L0.35355339059327345,3.181980515339464 " />
			<path d="M2.121320343559642,-2.1213203435596424 L0.7071067811865472,-1.6499158227686106 " />
			<path d="M0.35355339059327373,3.181980515339464 L0.3535533905932737,-1.060660171779821 " />
			<path d="M0.3535533905932737,-1.0606601717798212 L0.35525584680495187,-1.107433380250078 L0.36034681985601064,-1.1548911079617146 L0.36877728089295925,-1.2025763110538354 L0.3804660399674532,-1.25002975495328 L0.39530052793987946,-1.296794437054605 L0.41313788058170764,-1.3424199879049998 L0.4338063144361081,-1.3864670085083115 L0.45710678118654735,-1.4285113019775793 L0.4828148846008882,-1.4681479587829451 L0.5106830415897718,-1.5049952562517737 L0.540442866567111,-1.5386983347666576 L0.5718077561499982,-1.5689326152575218 L0.604475649305958,-1.5954069250755003 L0.6381319363658116,-1.6178663021447164 L0.6724524888867742,-1.636094450386449 L0.7071067811865441,-1.64991582276861 " />
			<path d="M-0.7071067811865475,-3.064129385141706 L2.1213203435596424,-2.1213203435596424 " />
			<path d="M-2.1213203435596424,-2.592724864350674 L0.7071067811865476,-1.6499158227686108 " />
			<path d="M-2.474873734152916,-2.0034692133618845 L0.353553390593274,-1.0606601717798212 " />
			<path d="M-0.5489928981781286,-3.067066513375931 L2.2794342265680614,-2.1242574717938676 " />

       </g>
    </g>
    
</svg>
