<?xml version="1.0" encoding="UTF-8" standalone="no"?>
<svg
   xmlns:svg="http://www.w3.org/2000/svg"
   xmlns="http://www.w3.org/2000/svg"
   width="500.0"
   height="400.0"

>
    <g transform="scale(33.14563036811941, -33.14563036811941)   translate(6.2602520361049,-2.960420390567679)" stroke-width="0.03016988933062603"  fill="none">
       <!-- hidden lines -->
       <g  stroke="rgb(160,160,160)" fill="none" stroke-dasharray="0.03016988933062603,0.03016988933062603" >

       </g>

       <!-- solid lines -->
       <g  stroke="rgb(0,0,0)" fill="none">
			<path d="M-5.65685424949238,0.4714045207910317 L-5.65685424949238,-0.32998316455372223 " />
			<path d="M0.10606601717798204,-2.321667264895831 L5.65685424949238,-0.4714045207910317 " />
			<path d="M0.05863185227545636,-2.3225484033660986 L0.08169703996051407,-2.3260070931114614 L0.10606601717798159,-2.321667264895831 " />
			<path d="M5.65685424949238,0.4714045207910317 L5.65685424949238,-0.4714045207910317 " />
			<path d="M-5.65685424949238,-0.32998316455372223 L-5.655840139781776,-0.3491545211611885 L-5.6528172026952666,-0.3672832054211098 L-5.647843243549495,-0.3840225563531343 L-5.64101337556553,-0.39905248013680905 L-5.632458201091398,-0.41208557102118365 L-5.622341314193154,-0.4228726071654332 L-5.610856172370523,-0.43120731631773623 L-5.598222397216924,-0.4369303202019718 " />
			<path d="M-5.598222397216923,-0.436930320201972 L-5.5751572095318656,-0.4403890099473349 L-5.550788232314399,-0.43604918173170454 " />
			<path d="M-5.65685424949238,0.4714045207910317 L1.2655975703543614e-16,2.3570226039551585 " />
			<path d="M5.65685424949238,0.4714045207910317 L-1.2655975703543614e-16,2.3570226039551585 " />
			<path d="M-5.550788232314398,-0.4360491817317043 L1.2655975703543614e-16,1.4142135623730951 " />
			<path d="M4.8904905977547084e-18,2.3570226039551585 L-4.890490597754709e-18,1.4142135623730951 " />
			<path d="M5.65685424949238,-0.4714045207910317 L-1.2655975703543614e-16,1.4142135623730951 " />
			<path d="M-0.35355339059327373,-1.7677669529663689 L-0.3865052266813685,-1.7556480367958853 L-0.4157348061512727,-1.7425108616052114 L-0.44096063217417747,-1.728481945572944 L-0.46193976625564337,-1.7136963948294595 L-0.4784701678661044,-1.6982966023110215 L-0.4903926402016152,-1.6824308764379658 L-0.4975923633360984,-1.6662520128235379 L-0.5,-1.6499158227686117 " />
			<path d="M-0.5,-1.649915822768611 L-0.49759236333609846,-1.6335796327136842 L-0.4903926402016152,-1.6174007690992562 L-0.47847016786610447,-1.6015350432262008 L-0.4619397662556434,-1.5861352507077628 L-0.4409606321741775,-1.5713496999642782 L-0.41573480615127273,-1.5573207839320107 L-0.38650522668136855,-1.5441836087413368 L-0.35355339059327384,-1.5320646925708532 L-0.3171966420818226,-1.521080747208155 L-0.2777851165098011,-1.5113375540515201 L-0.19134171618254517,-1.4959359006833965 L-0.09754516100806433,-1.4864516093680726 L-9.491641444660038e-17,-1.4832491561019443 L0.09754516100806415,-1.4864516093680726 L0.191341716182545,-1.4959359006833965 L0.2777851165098009,-1.5113375540515201 L0.31719664208182247,-1.521080747208155 L0.3535533905932737,-1.5320646925708532 L0.3865052266813686,-1.5441836087413368 L0.4157348061512726,-1.5573207839320107 L0.4409606321741774,-1.571349699964278 L0.46193976625564326,-1.5861352507077626 L0.4784701678661043,-1.6015350432262005 L0.49039264020161516,-1.6174007690992562 L0.49759236333609846,-1.6335796327136842 L0.5,-1.6499158227686095 " />
			<path d="M0.5,-1.649915822768611 L0.4986452283393451,-1.6621765833685556 L0.4945882549823905,-1.6743709018445048 L0.4878510650192643,-1.6864326961280893 L0.47847016786610447,-1.6982966023110215 L0.4519946465617217,-1.7211750050069914 L0.4157348061512727,-1.7425108616052114 L0.37047556267747966,-1.761842315243114 L0.3171966420818229,-1.7787508983290672 L0.25705137209661105,-1.7928705911019898 L0.1913417161825451,-1.8038957448538255 L0.12149008995163221,-1.811587698301035 L0.0490085701647806,-1.815779943880644 L-0.024533837163708678,-1.8163817321361397 L-0.09754516100806378,-1.8133800361691494 L-0.16844492669610964,-1.8068398336324478 L-0.23569836841299846,-1.7969027001600035 L-0.2978496522462163,-1.783783744682052 L-0.35355339059327184,-1.7677669529663695 " />
			<path d="M3.181980515339464,-0.5892556509887896 L3.149028679251369,-0.577136734818306 L3.1197990997814644,-0.563999559627632 L3.09457327375856,-0.5499706435953646 L3.073594139677094,-0.53518509285188 L3.057063738066633,-0.5197853003334421 L3.045141265731122,-0.5039195744603865 L3.0379415425966387,-0.4877407108459585 L3.0355339059327373,-0.47140452079103246 " />
			<path d="M3.0355339059327373,-0.4714045207910317 L3.0379415425966387,-0.4550683307361049 L3.045141265731122,-0.4388894671216769 L3.057063738066633,-0.4230237412486213 L3.073594139677094,-0.40762394873018337 L3.09457327375856,-0.39283839798669873 L3.1197990997814644,-0.37880948195443137 L3.149028679251369,-0.3656723067637575 L3.1819805153394634,-0.3535533905932738 L3.218337263850915,-0.3425694452305755 L3.257748789422936,-0.3328262520739408 L3.344192189750192,-0.3174245987058173 L3.437988744924673,-0.3079403073904933 L3.5355339059327373,-0.30473785412436505 L3.6330790669408013,-0.3079403073904933 L3.726875622115282,-0.31742459870581724 L3.8133190224425384,-0.3328262520739408 L3.8527305480145597,-0.3425694452305754 L3.889087296526011,-0.35355339059327373 L3.9220391326141057,-0.3656723067637575 L3.9512687120840098,-0.3788094819544313 L3.9764945381069148,-0.3928383979866987 L3.997473672188381,-0.40762394873018326 L4.014004073798842,-0.42302374124862113 L4.025926546134352,-0.4388894671216769 L4.033126269268836,-0.4550683307361049 L4.035533905932738,-0.4714045207910302 " />
			<path d="M4.035533905932738,-0.4714045207910317 L4.034179134272082,-0.48366528139097625 L4.030122160915128,-0.4958595998669253 L4.0233849709520015,-0.50792139415051 L4.014004073798842,-0.5197853003334421 L3.9875285524944593,-0.542663703029412 L3.95126871208401,-0.563999559627632 L3.906009468610217,-0.5833310132655347 L3.85273054801456,-0.6002395963514878 L3.7925852780293483,-0.6143592891244103 L3.7268756221152826,-0.6253844428762461 L3.6570239958843693,-0.6330763963234556 L3.5845424760975177,-0.6372686419030644 L3.511000068769029,-0.6378704301585604 L3.4379887449246733,-0.6348687341915701 L3.3670889792366276,-0.6283285316548686 L3.299835537519739,-0.6183913981824243 L3.237684253686521,-0.6052724427044726 L3.1819805153394656,-0.5892556509887903 " />
			<path d="M-3.889087296526011,-0.5892556509887896 L-3.9220391326141057,-0.577136734818306 L-3.95126871208401,-0.563999559627632 L-3.9764945381069148,-0.5499706435953646 L-3.997473672188381,-0.53518509285188 L-4.014004073798842,-0.5197853003334421 L-4.025926546134352,-0.5039195744603865 L-4.033126269268836,-0.4877407108459585 L-4.035533905932738,-0.47140452079103246 " />
			<path d="M-4.035533905932738,-0.4714045207910317 L-4.033126269268836,-0.4550683307361049 L-4.025926546134352,-0.4388894671216769 L-4.014004073798842,-0.4230237412486213 L-3.997473672188381,-0.40762394873018337 L-3.9764945381069148,-0.39283839798669873 L-3.95126871208401,-0.37880948195443137 L-3.9220391326141057,-0.3656723067637575 L-3.8890872965260113,-0.3535533905932738 L-3.8527305480145597,-0.3425694452305755 L-3.8133190224425384,-0.3328262520739408 L-3.7268756221152826,-0.3174245987058173 L-3.6330790669408017,-0.3079403073904933 L-3.5355339059327373,-0.30473785412436505 L-3.4379887449246733,-0.3079403073904933 L-3.3441921897501925,-0.31742459870581724 L-3.257748789422936,-0.3328262520739408 L-3.218337263850915,-0.3425694452305754 L-3.181980515339464,-0.35355339059327373 L-3.149028679251369,-0.3656723067637575 L-3.119799099781465,-0.3788094819544313 L-3.09457327375856,-0.3928383979866987 L-3.073594139677094,-0.40762394873018326 L-3.057063738066633,-0.42302374124862113 L-3.045141265731122,-0.4388894671216769 L-3.0379415425966387,-0.4550683307361049 L-3.0355339059327373,-0.4714045207910302 " />
			<path d="M-3.0355339059327373,-0.4714045207910317 L-3.0368886775933923,-0.48366528139097625 L-3.0409456509503467,-0.4958595998669253 L-3.047682840913473,-0.50792139415051 L-3.057063738066633,-0.5197853003334421 L-3.0835392593710154,-0.542663703029412 L-3.1197990997814644,-0.563999559627632 L-3.1650583432552577,-0.5833310132655347 L-3.2183372638509145,-0.6002395963514878 L-3.2784825338361263,-0.6143592891244103 L-3.344192189750192,-0.6253844428762461 L-3.4140438159811053,-0.6330763963234556 L-3.486525335767957,-0.6372686419030644 L-3.560067743096446,-0.6378704301585604 L-3.6330790669408013,-0.6348687341915701 L-3.703978832628847,-0.6283285316548686 L-3.771232274345736,-0.6183913981824243 L-3.8333835581789537,-0.6052724427044726 L-3.889087296526009,-0.5892556509887903 " />
			<path d="M-0.35355339059327373,0.5892556509887896 L-0.3865052266813685,0.6013745671592733 L-0.4157348061512727,0.6145117423499472 L-0.44096063217417747,0.6285406583822146 L-0.46193976625564337,0.6433262091256993 L-0.4784701678661044,0.6587260016441372 L-0.4903926402016152,0.6745917275171928 L-0.4975923633360984,0.6907705911316208 L-0.5,0.7071067811865468 " />
			<path d="M-0.5,0.7071067811865476 L-0.49759236333609846,0.7234429712414744 L-0.4903926402016152,0.7396218348559023 L-0.47847016786610447,0.755487560728958 L-0.4619397662556434,0.7708873532473959 L-0.4409606321741775,0.7856729039908805 L-0.41573480615127273,0.7997018200231479 L-0.38650522668136855,0.8128389952138217 L-0.35355339059327384,0.8249579113843055 L-0.3171966420818226,0.8359418567470038 L-0.2777851165098011,0.8456850499036385 L-0.19134171618254517,0.861086703271762 L-0.09754516100806433,0.870570994587086 L-9.491641444660038e-17,0.8737734478532142 L0.09754516100806415,0.870570994587086 L0.191341716182545,0.861086703271762 L0.2777851165098009,0.8456850499036385 L0.31719664208182247,0.8359418567470038 L0.3535533905932737,0.8249579113843055 L0.3865052266813686,0.8128389952138217 L0.4157348061512726,0.7997018200231479 L0.4409606321741774,0.7856729039908805 L0.46193976625564326,0.770887353247396 L0.4784701678661043,0.7554875607289582 L0.49039264020161516,0.7396218348559024 L0.49759236333609846,0.7234429712414743 L0.5,0.7071067811865491 " />
			<path d="M0.5,0.7071067811865476 L0.4986452283393451,0.694846020586603 L0.4945882549823905,0.682651702110654 L0.4878510650192643,0.6705899078270693 L0.47847016786610447,0.6587260016441372 L0.4519946465617217,0.6358475989481672 L0.4157348061512727,0.6145117423499472 L0.37047556267747966,0.5951802887120445 L0.3171966420818229,0.5782717056260914 L0.25705137209661105,0.564152012853169 L0.1913417161825451,0.5531268591013332 L0.12149008995163221,0.5454349056541237 L0.0490085701647806,0.5412426600745148 L-0.024533837163708678,0.5406408718190189 L-0.09754516100806378,0.5436425677860092 L-0.16844492669610964,0.5501827703227107 L-0.23569836841299846,0.560119903795155 L-0.2978496522462163,0.5732388592731067 L-0.35355339059327184,0.589255650988789 " />
			<path d="M0.10606601717798206,-2.321667264895831 L-5.550788232314398,-0.43604918173170437 " />
			<path d="M0.05863185227545645,-2.3225484033660986 L-5.598222397216923,-0.43693032020197176 " />

       </g>
    </g>
    
</svg>
